<svg width="33" height="33" viewBox="0 0 33 33" fill="none" xmlns="http://www.w3.org/2000/svg">
<g clip-path="url(#clip0_1_68)">
<path d="M25.9648 14.0436H7.04931C5.13578 14.0436 3.58424 12.4792 3.58424 10.5786V7.17819C3.58424 5.26466 5.1487 3.71313 7.04931 3.71313H25.9648C27.8784 3.71313 29.4299 5.27759 29.4299 7.17819V10.5786C29.4299 12.4792 27.8654 14.0436 25.9648 14.0436Z" stroke="#11BF85" stroke-width="1.93939" stroke-linecap="round" stroke-linejoin="round"/>
<path d="M25.9648 29.5587H7.04931C5.13578 29.5587 3.58424 27.9943 3.58424 26.0937V22.6933C3.58424 20.7798 5.1487 19.2283 7.04931 19.2283H25.9648C27.8784 19.2283 29.4299 20.7927 29.4299 22.6933V26.0937C29.4299 27.9943 27.8654 29.5587 25.9648 29.5587Z" stroke="#11BF85" stroke-width="1.93939" stroke-linecap="round" stroke-linejoin="round"/>
<path d="M8.74335 7.57886V10.1647" stroke="#11BF85" stroke-width="1.93939" stroke-linecap="round" stroke-linejoin="round"/>
<path d="M13.9138 7.57886V10.1647" stroke="#11BF85" stroke-width="1.93939" stroke-linecap="round" stroke-linejoin="round"/>
<path d="M8.74335 23.094V25.6799" stroke="#11BF85" stroke-width="1.93939" stroke-linecap="round" stroke-linejoin="round"/>
<path d="M13.9138 23.094V25.6799" stroke="#11BF85" stroke-width="1.93939" stroke-linecap="round" stroke-linejoin="round"/>
<path d="M19.088 8.87231H24.2597" stroke="#11BF85" stroke-width="1.93939" stroke-linecap="round" stroke-linejoin="round"/>
<path d="M19.088 24.3875H24.2597" stroke="#11BF85" stroke-width="1.93939" stroke-linecap="round" stroke-linejoin="round"/>
</g>
<defs>
<clipPath id="clip0_1_68">
<rect width="32" height="32" fill="white" transform="translate(0.660004 0.629883)"/>
</clipPath>
</defs>
</svg>
