<svg width="33" height="33" viewBox="0 0 33 33" fill="none" xmlns="http://www.w3.org/2000/svg">
<g clip-path="url(#clip0_1_36)">
<path d="M25.5527 21.8016V9.51885C25.5527 8.09662 24.3891 6.93298 22.9668 6.93298H17.1486" stroke="#11BF85" stroke-width="1.93939" stroke-linecap="round" stroke-linejoin="round"/>
<path d="M20.3797 3.70007L16.5009 6.93239L20.3797 10.1647" stroke="#11BF85" stroke-width="1.93939" stroke-linecap="round" stroke-linejoin="round"/>
<path d="M7.45168 12.7512V21.8017" stroke="#11BF85" stroke-width="1.93939" stroke-linecap="round" stroke-linejoin="round"/>
<path d="M7.77491 12.1041C10.0956 12.1041 11.977 10.2228 11.977 7.90209C11.977 5.58137 10.0956 3.70007 7.77491 3.70007C5.4542 3.70007 3.57289 5.58137 3.57289 7.90209C3.57289 10.2228 5.4542 12.1041 7.77491 12.1041Z" stroke="#11BF85" stroke-width="1.93939" stroke-linecap="round" stroke-linejoin="round"/>
<path d="M7.45168 29.5599C9.59388 29.5599 11.3305 27.8233 11.3305 25.6812C11.3305 23.5389 9.59388 21.8024 7.45168 21.8024C5.30948 21.8024 3.57289 23.5389 3.57289 25.6812C3.57289 27.8233 5.30948 29.5599 7.45168 29.5599Z" stroke="#11BF85" stroke-width="1.93939" stroke-linecap="round" stroke-linejoin="round"/>
<path d="M25.5502 29.5599C27.6923 29.5599 29.429 27.8233 29.429 25.6812C29.429 23.5389 27.6923 21.8024 25.5502 21.8024C23.4079 21.8024 21.6714 23.5389 21.6714 25.6812C21.6714 27.8233 23.4079 29.5599 25.5502 29.5599Z" stroke="#11BF85" stroke-width="1.93939" stroke-linecap="round" stroke-linejoin="round"/>
</g>
<defs>
<clipPath id="clip0_1_36">
<rect width="32" height="32" fill="white" transform="translate(0.660004 0.630005)"/>
</clipPath>
</defs>
</svg>
