<svg width="33" height="33" viewBox="0 0 33 33" fill="none" xmlns="http://www.w3.org/2000/svg">
<g clip-path="url(#clip0_1_83)">
<path d="M17.6573 4.03645L26.0743 8.57463C27.057 9.10473 27.057 10.6175 26.0743 11.1476L17.6573 15.6858C16.9074 16.0866 16.0282 16.0866 15.2783 15.6858L6.86136 11.1476C5.87873 10.6175 5.87873 9.10473 6.86136 8.57463L15.2783 4.03645C16.0282 3.63564 16.9074 3.63564 17.6573 4.03645Z" stroke="#11BF85" stroke-width="1.93939" stroke-linecap="round" stroke-linejoin="round"/>
<path d="M5.62268 14.2129L13.4449 18.1305C14.4146 18.6218 15.0352 19.6174 15.0352 20.7035V28.0989C15.0352 29.1721 13.9104 29.8574 12.9536 29.3789L5.13136 25.4614C4.16167 24.9701 3.54106 23.9745 3.54106 22.8885V15.4929C3.54106 14.4198 4.66591 13.7345 5.62268 14.2129Z" stroke="#11BF85" stroke-width="1.93939" stroke-linecap="round" stroke-linejoin="round"/>
<path d="M27.3172 14.2129L19.495 18.1305C18.5253 18.6218 17.9047 19.6174 17.9047 20.7035V28.0989C17.9047 29.1721 19.0295 29.8574 19.9863 29.3789L27.8086 25.4614C28.7783 24.9701 29.3989 23.9745 29.3989 22.8885V15.4929C29.3989 14.4198 28.274 13.7345 27.3172 14.2129Z" stroke="#11BF85" stroke-width="1.93939" stroke-linecap="round" stroke-linejoin="round"/>
</g>
<defs>
<clipPath id="clip0_1_83">
<rect width="32" height="32" fill="white" transform="translate(0.309998 0.629883)"/>
</clipPath>
</defs>
</svg>
