<svg width="32" height="33" viewBox="0 0 32 33" fill="none" xmlns="http://www.w3.org/2000/svg">
<path d="M13.5808 26.8435V6.41523C13.5808 4.47583 12.7534 3.70007 10.6976 3.70007H5.47417C3.41841 3.70007 2.59094 4.47583 2.59094 6.41523V26.8435C2.59094 28.7829 3.41841 29.5587 5.47417 29.5587H10.6976C12.7534 29.5587 13.5808 28.7829 13.5808 26.8435Z" stroke="#11BF85" stroke-width="1.93939" stroke-linecap="round" stroke-linejoin="round"/>
<path d="M28.4482 15.2072V6.41523C28.4482 4.47583 27.6207 3.70007 25.565 3.70007H20.3415C18.2858 3.70007 17.4583 4.47583 17.4583 6.41523V15.2072C17.4583 17.1466 18.2858 17.9223 20.3415 17.9223H25.565C27.6207 17.9223 28.4482 17.1466 28.4482 15.2072Z" stroke="#11BF85" stroke-width="1.93939" stroke-linecap="round" stroke-linejoin="round"/>
<path d="M28.4482 26.8448V24.5175C28.4482 22.5781 27.6207 21.8024 25.565 21.8024H20.3415C18.2858 21.8024 17.4583 22.5781 17.4583 24.5175V26.8448C17.4583 28.7842 18.2858 29.5599 20.3415 29.5599H25.565C27.6207 29.5599 28.4482 28.7842 28.4482 26.8448Z" stroke="#11BF85" stroke-width="1.93939" stroke-linecap="round" stroke-linejoin="round"/>
</svg>
