<svg width="33" height="33" viewBox="0 0 33 33" fill="none" xmlns="http://www.w3.org/2000/svg">
<g clip-path="url(#clip0_1_49)">
<path d="M5.05241 10.7341L16.469 17.341L27.808 10.7729" stroke="#11BF85" stroke-width="1.93939" stroke-linecap="round" stroke-linejoin="round"/>
<path d="M16.4691 29.0557V17.3289" stroke="#11BF85" stroke-width="1.93939" stroke-linecap="round" stroke-linejoin="round"/>
<path d="M13.7935 4.32047L6.8893 8.14755C5.32485 9.0138 4.04485 11.1859 4.04485 12.9701V20.2752C4.04485 22.0595 5.32485 24.2316 6.8893 25.0978L13.7935 28.9378C15.2675 29.7524 17.6852 29.7524 19.1592 28.9378L26.0634 25.0978C27.6279 24.2316 28.9079 22.0595 28.9079 20.2752V12.9701C28.9079 11.1859 27.6279 9.0138 26.0634 8.14755L19.1592 4.30754C17.6723 3.493 15.2675 3.493 13.7935 4.32047Z" stroke="#11BF85" stroke-width="1.93939" stroke-linecap="round" stroke-linejoin="round"/>
</g>
<defs>
<clipPath id="clip0_1_49">
<rect width="32" height="32" fill="white" transform="translate(0.309998 0.630005)"/>
</clipPath>
</defs>
</svg>
