<svg width="32" height="33" viewBox="0 0 32 33" fill="none" xmlns="http://www.w3.org/2000/svg">
<g clip-path="url(#clip0_1_60)">
<path d="M28 9.62988C28 6.86738 25.7625 4.62988 23 4.62988C20.2375 4.62988 18 6.86738 18 9.62988C18 11.9049 19.5187 13.8236 21.5938 14.4299C21.5562 15.4361 21.3313 16.2111 20.9062 16.7361C19.9438 17.9361 17.825 18.1361 15.5813 18.3424C13.8188 18.5049 11.9937 18.6799 10.5 19.3986V10.3986C12.5312 9.76113 14 7.86738 14 5.62988C14 2.86738 11.7625 0.629883 9 0.629883C6.2375 0.629883 4 2.86738 4 5.62988C4 7.86738 5.46875 9.76113 7.5 10.3986V22.8549C5.46875 23.4986 4 25.3924 4 27.6299C4 30.3924 6.2375 32.6299 9 32.6299C11.7625 32.6299 14 30.3924 14 27.6299C14 25.5049 12.675 23.6861 10.8 22.9674C10.9938 22.6424 11.2875 22.3549 11.7312 22.1299C12.7437 21.6174 14.2563 21.4799 15.8625 21.3299C18.5 21.0861 21.4875 20.8049 23.25 18.6174C24.125 17.5299 24.5688 16.1299 24.6 14.3736C26.575 13.6986 28 11.8299 28 9.62988ZM9 4.62988C9.55 4.62988 10 5.07988 10 5.62988C10 6.17988 9.55 6.62988 9 6.62988C8.45 6.62988 8 6.17988 8 5.62988C8 5.07988 8.45 4.62988 9 4.62988ZM9 28.6299C8.45 28.6299 8 28.1799 8 27.6299C8 27.0799 8.45 26.6299 9 26.6299C9.55 26.6299 10 27.0799 10 27.6299C10 28.1799 9.55 28.6299 9 28.6299ZM23 8.62988C23.55 8.62988 24 9.07988 24 9.62988C24 10.1799 23.55 10.6299 23 10.6299C22.45 10.6299 22 10.1799 22 9.62988C22 9.07988 22.45 8.62988 23 8.62988Z" fill="#11BF85"/>
</g>
<defs>
<clipPath id="clip0_1_60">
<rect width="32" height="32" fill="white" transform="translate(0 0.629883)"/>
</clipPath>
</defs>
</svg>
