<svg width="28" height="29" viewBox="0 0 28 29" fill="none" xmlns="http://www.w3.org/2000/svg">
<g id="Frame">
<path id="Vector" d="M7 7.56104V9.89436" stroke="#11BF85" stroke-width="1.75" stroke-linecap="round" stroke-linejoin="round"/>
<path id="Vector_2" d="M25.6654 13.27V10.7707C25.6654 4.93734 23.332 2.604 17.4987 2.604H10.4987C4.66536 2.604 2.33203 4.93734 2.33203 10.7707V17.7707C2.33203 23.604 4.66536 25.9373 10.4987 25.9373H13.9987" stroke="#11BF85" stroke-width="1.75" stroke-linecap="round" stroke-linejoin="round"/>
<path id="Vector_3" d="M11.668 7.56104V9.89436" stroke="#11BF85" stroke-width="1.75" stroke-linecap="round" stroke-linejoin="round"/>
<path id="Vector_4" d="M7 18.936V21.2693" stroke="#11BF85" stroke-width="1.75" stroke-linecap="round" stroke-linejoin="round"/>
<path id="Vector_5" d="M11.668 18.936V21.2693" stroke="#11BF85" stroke-width="1.75" stroke-linecap="round" stroke-linejoin="round"/>
<path id="Vector_6" d="M16.332 8.729H20.9987" stroke="#11BF85" stroke-width="1.75" stroke-linecap="round" stroke-linejoin="round"/>
<path id="Vector_7" d="M2.33203 13.27H25.6654" stroke="#11BF85" stroke-width="1.75" stroke-linecap="round" stroke-linejoin="round"/>
<path id="Vector_8" d="M20.8815 25.9726C23.4588 25.9726 25.5482 23.8832 25.5482 21.3059C25.5482 18.7286 23.4588 16.6392 20.8815 16.6392C18.3042 16.6392 16.2148 18.7286 16.2148 21.3059C16.2148 23.8832 18.3042 25.9726 20.8815 25.9726Z" stroke="#11BF85" stroke-width="1.75" stroke-miterlimit="10" stroke-linecap="round" stroke-linejoin="round"/>
<path id="Vector_9" d="M22.1296 22.6126L19.668 20.1392" stroke="#11BF85" stroke-width="1.75" stroke-miterlimit="10" stroke-linecap="round" stroke-linejoin="round"/>
<path id="Vector_10" d="M22.1061 20.1743L19.6328 22.636" stroke="#11BF85" stroke-width="1.75" stroke-miterlimit="10" stroke-linecap="round" stroke-linejoin="round"/>
</g>
</svg>
