<svg width="28" height="29" viewBox="0 0 28 29" fill="none" xmlns="http://www.w3.org/2000/svg">
<g id="Frame">
<path id="Vector" d="M9.77734 14.2691L12.589 17.0924L18.224 11.4458" stroke="#11BF85" stroke-width="2" stroke-linecap="round" stroke-linejoin="round"/>
<path id="Vector_2" d="M12.5423 3.12807C13.3473 2.43973 14.6657 2.43973 15.4823 3.12807L17.3257 4.71473C17.6757 5.01807 18.329 5.26307 18.7957 5.26307H20.779C22.0157 5.26307 23.0307 6.27807 23.0307 7.51473V9.49807C23.0307 9.95307 23.2757 10.618 23.579 10.968L25.1657 12.8114C25.854 13.6164 25.854 14.9347 25.1657 15.7514L23.579 17.5947C23.2757 17.9447 23.0307 18.598 23.0307 19.0647V21.048C23.0307 22.2847 22.0157 23.2997 20.779 23.2997H18.7957C18.3407 23.2997 17.6757 23.5447 17.3257 23.848L15.4823 25.4347C14.6773 26.123 13.359 26.123 12.5423 25.4347L10.699 23.848C10.349 23.5447 9.69568 23.2997 9.22901 23.2997H7.21068C5.97401 23.2997 4.95901 22.2847 4.95901 21.048V19.053C4.95901 18.598 4.71401 17.9447 4.42234 17.5947L2.84734 15.7397C2.17068 14.9347 2.17068 13.628 2.84734 12.823L4.42234 10.968C4.71401 10.618 4.95901 9.96473 4.95901 9.50973V7.50307C4.95901 6.2664 5.97401 5.2514 7.21068 5.2514H9.22901C9.68401 5.2514 10.349 5.0064 10.699 4.70307L12.5423 3.12807Z" stroke="#11BF85" stroke-width="2" stroke-linecap="round" stroke-linejoin="round"/>
</g>
</svg>
