<svg width="28" height="29" viewBox="0 0 28 29" fill="none" xmlns="http://www.w3.org/2000/svg">
<g id="Frame">
<path id="Vector" d="M2.21484 11.9712H25.5482" stroke="#11BF85" stroke-width="1.75" stroke-miterlimit="10" stroke-linecap="round" stroke-linejoin="round"/>
<path id="Vector_2" d="M13.3682 24.2225H7.40645C3.26479 24.2225 2.21484 23.1959 2.21484 19.1009V9.51089C2.21484 5.80089 3.07814 4.61088 6.33314 4.42422C6.65981 4.41255 7.02145 4.40088 7.40645 4.40088H20.3682C24.5098 4.40088 25.5598 5.42755 25.5598 9.52255V14.6675" stroke="#11BF85" stroke-width="1.75" stroke-linecap="round" stroke-linejoin="round"/>
<path id="Vector_3" d="M20.8815 25.9726C23.4588 25.9726 25.5482 23.8832 25.5482 21.3059C25.5482 18.7286 23.4588 16.6392 20.8815 16.6392C18.3042 16.6392 16.2148 18.7286 16.2148 21.3059C16.2148 23.8832 18.3042 25.9726 20.8815 25.9726Z" stroke="#11BF85" stroke-width="1.75" stroke-miterlimit="10" stroke-linecap="round" stroke-linejoin="round"/>
<path id="Vector_4" d="M22.1296 22.6126L19.668 20.1392" stroke="#11BF85" stroke-width="1.75" stroke-miterlimit="10" stroke-linecap="round" stroke-linejoin="round"/>
<path id="Vector_5" d="M22.1061 20.1743L19.6328 22.636" stroke="#11BF85" stroke-width="1.75" stroke-miterlimit="10" stroke-linecap="round" stroke-linejoin="round"/>
<path id="Vector_6" d="M6.88281 18.9712H11.5495" stroke="#11BF85" stroke-width="1.75" stroke-miterlimit="10" stroke-linecap="round" stroke-linejoin="round"/>
</g>
</svg>
