<?xml version="1.0" encoding="UTF-8"?> <svg xmlns="http://www.w3.org/2000/svg" width="80" height="80" viewBox="0 0 80 80" fill="none"><g filter="url(#filter0_b_12402_34457)"><circle cx="40" cy="40" r="40" fill="#005E54" fill-opacity="0.3"></circle></g><g filter="url(#filter1_d_12402_34457)"><path fill-rule="evenodd" clip-rule="evenodd" d="M27 27.306C27 24.454 30.058 22.646 32.558 24.02L55.638 36.716C58.228 38.14 58.228 41.862 55.638 43.286L32.56 55.982C30.06 57.356 27.002 55.548 27.002 52.696L27 27.306Z" fill="url(#paint0_linear_12402_34457)"></path><path d="M55.5175 36.9351L55.5176 36.9351C57.9348 38.2641 57.9348 41.7379 55.5176 43.0669L55.5175 43.067L32.4396 55.7629C32.4396 55.7629 32.4395 55.763 32.4395 55.763C30.106 57.0454 27.252 55.3577 27.252 52.696L27.25 27.306C27.25 27.306 27.25 27.306 27.25 27.306C27.25 24.6443 30.104 22.9567 32.4375 24.2391C32.4375 24.2391 32.4376 24.2391 32.4376 24.2391L55.5175 36.9351Z" stroke="url(#paint1_linear_12402_34457)" stroke-opacity="0.1" stroke-width="0.5"></path></g><defs><filter id="filter0_b_12402_34457" x="-8" y="-8" width="96" height="96" filterUnits="userSpaceOnUse" color-interpolation-filters="sRGB"><feFlood flood-opacity="0" result="BackgroundImageFix"></feFlood><feGaussianBlur in="BackgroundImageFix" stdDeviation="4"></feGaussianBlur><feComposite in2="SourceAlpha" operator="in" result="effect1_backgroundBlur_12402_34457"></feComposite><feBlend mode="normal" in="SourceGraphic" in2="effect1_backgroundBlur_12402_34457" result="shape"></feBlend></filter><filter id="filter1_d_12402_34457" x="18" y="18.5508" width="48.582" height="50.9004" filterUnits="userSpaceOnUse" color-interpolation-filters="sRGB"><feFlood flood-opacity="0" result="BackgroundImageFix"></feFlood><feColorMatrix in="SourceAlpha" type="matrix" values="0 0 0 0 0 0 0 0 0 0 0 0 0 0 0 0 0 0 127 0" result="hardAlpha"></feColorMatrix><feOffset dy="4"></feOffset><feGaussianBlur stdDeviation="4.5"></feGaussianBlur><feComposite in2="hardAlpha" operator="out"></feComposite><feColorMatrix type="matrix" values="0 0 0 0 0 0 0 0 0 0.368627 0 0 0 0 0.329412 0 0 0 0.4 0"></feColorMatrix><feBlend mode="normal" in2="BackgroundImageFix" result="effect1_dropShadow_12402_34457"></feBlend><feBlend mode="normal" in="SourceGraphic" in2="effect1_dropShadow_12402_34457" result="shape"></feBlend></filter><linearGradient id="paint0_linear_12402_34457" x1="42.2902" y1="23.5508" x2="42.2902" y2="56.4513" gradientUnits="userSpaceOnUse"><stop stop-color="#F8FAFC"></stop><stop offset="1" stop-color="#C9D9E8"></stop></linearGradient><linearGradient id="paint1_linear_12402_34457" x1="21.75" y1="21.9995" x2="47.25" y2="56.4995" gradientUnits="userSpaceOnUse"><stop></stop><stop offset="0.661206" stop-opacity="0"></stop></linearGradient></defs></svg> 