<svg width="31" height="32" viewBox="0 0 31 32" fill="none" xmlns="http://www.w3.org/2000/svg">
<path d="M27.9665 11.3707C27.5874 10.9891 27.3737 10.4736 27.3715 9.93573V8.12662C27.37 7.02582 26.932 5.97053 26.1536 5.19223C25.3753 4.41383 24.32 3.97583 23.2192 3.97433H21.413C20.8759 3.97263 20.361 3.76003 19.9793 3.38223L18.4351 1.83663C17.6559 1.05943 16.6003 0.622925 15.4998 0.622925C14.3993 0.622925 13.3436 1.05943 12.5645 1.83663L11.0217 3.38223C10.64 3.76123 10.1245 3.97493 9.5866 3.97723H7.7775C6.6772 3.97873 5.6224 4.41622 4.8441 5.19402C4.0658 5.97172 3.6275 7.02632 3.6253 8.12662V9.93573C3.6236 10.4727 3.4109 10.9876 3.0331 11.3693L1.4861 12.9135C0.708899 13.6927 0.272499 14.7483 0.272499 15.8488C0.272499 16.9494 0.708899 18.005 1.4861 18.7842L3.0331 20.3269C3.4122 20.7086 3.6259 21.2241 3.6281 21.762V23.5711C3.6296 24.6719 4.0676 25.7271 4.8459 26.5055C5.6243 27.2839 6.6796 27.7218 7.7804 27.7233H9.5866C10.1239 27.7254 10.6388 27.9386 11.0203 28.3169L12.5645 29.8625C13.3435 30.64 14.3991 31.0767 15.4998 31.0767C16.6004 31.0767 17.6561 30.64 18.4351 29.8625L19.9779 28.3183C20.3596 27.9393 20.875 27.7255 21.413 27.7233H23.222C24.3228 27.7218 25.3781 27.2839 26.1565 26.5055C26.9348 25.7271 27.3728 24.6719 27.3743 23.5711V21.762C27.3763 21.2244 27.59 20.7093 27.9693 20.3283L29.5135 18.7842C30.2907 18.005 30.7271 16.9494 30.7271 15.8488C30.7271 14.7483 30.2907 13.6927 29.5135 12.9135L27.9665 11.3707Z" fill="#11BF85"/>
<path d="M14.0832 19.7448C13.9436 19.7451 13.8054 19.7177 13.6765 19.6642C13.5476 19.6107 13.4307 19.5322 13.3324 19.4331L10.499 16.5998C10.3114 16.3984 10.2092 16.132 10.214 15.8567C10.2189 15.5814 10.3304 15.3188 10.5251 15.1241C10.7197 14.9295 10.9824 14.818 11.2576 14.8131C11.5329 14.8083 11.7993 14.9104 12.0007 15.0981L14.0832 17.1792L18.999 12.2648C19.2004 12.0771 19.4668 11.9749 19.7421 11.9798C20.0174 11.9846 20.28 12.0961 20.4747 12.2908C20.6693 12.4855 20.7808 12.7481 20.7857 13.0234C20.7906 13.2986 20.6884 13.565 20.5007 13.7664L14.834 19.4331C14.7357 19.5322 14.6188 19.6107 14.4899 19.6642C14.361 19.7177 14.2227 19.7451 14.0832 19.7448Z" fill="white"/>
</svg>
