<svg width="29" height="30" viewBox="0 0 29 30" fill="none" xmlns="http://www.w3.org/2000/svg">
<path d="M25.439 4.00831C22.2887 3.37491 19.2577 2.24951 16.4574 0.673512C15.8636 0.325612 15.1878 0.142212 14.4995 0.142212C13.8113 0.142212 13.1355 0.325612 12.5417 0.673512C9.7414 2.24951 6.7104 3.37491 3.56 4.00831C2.6849 4.19271 1.8991 4.67101 1.3334 5.36371C0.767699 6.05651 0.456199 6.92191 0.450499 7.81631V10.2926C0.433099 13.7207 1.2955 17.0959 2.9554 20.0954C4.6152 23.0949 7.017 25.6184 9.9308 27.4244L12.4425 28.9827C13.0585 29.3678 13.7703 29.5721 14.4967 29.5721C15.2231 29.5721 15.9349 29.3678 16.5509 28.9827L19.0612 27.4244C21.9764 25.6192 24.3795 23.0962 26.0406 20.0966C27.7017 17.0971 28.5653 13.7214 28.5486 10.2926V7.81631C28.5429 6.92191 28.2313 6.05651 27.6656 5.36371C27.0999 4.67101 26.3142 4.19271 25.439 4.00831Z" fill="#005E54"/>
<path d="M15.9162 17.3279C15.7767 17.3283 15.6384 17.3009 15.5095 17.2474C15.3806 17.1939 15.2637 17.1153 15.1654 17.0163L12.332 14.1829C12.1444 13.9815 12.0422 13.7151 12.047 13.4399C12.0519 13.1646 12.1634 12.902 12.3581 12.7073C12.5527 12.5126 12.8154 12.4011 13.0906 12.3963C13.3659 12.3914 13.6323 12.4936 13.8337 12.6813L15.9162 14.7624L22.2487 8.43131C22.4501 8.24361 22.7165 8.14141 22.9918 8.14631C23.267 8.15111 23.5297 8.26261 23.7243 8.45731C23.919 8.65201 24.0305 8.91461 24.0354 9.18991C24.0402 9.46511 23.9381 9.73151 23.7504 9.93291L16.667 17.0163C16.5688 17.1153 16.4518 17.1939 16.3229 17.2474C16.194 17.3009 16.0558 17.3283 15.9162 17.3279Z" fill="#FCC400"/>
<path d="M14.5 20.8696C13.4084 20.8715 12.3327 20.6079 11.3657 20.1014C10.3988 19.5949 9.5695 18.8608 8.9495 17.9624C8.3295 17.0639 7.9374 16.0282 7.807 14.9444C7.6766 13.8606 7.8118 12.7614 8.2009 11.7415C8.5901 10.7216 9.2215 9.81181 10.0407 9.09031C10.8599 8.36891 11.8423 7.85761 12.9032 7.60051C13.9641 7.34341 15.0716 7.34831 16.1302 7.61471C17.1888 7.88111 18.1667 8.40101 18.9795 9.12971C19.0935 9.21961 19.1878 9.33201 19.2566 9.45981C19.3255 9.58761 19.3674 9.72821 19.3798 9.87291C19.3922 10.0175 19.3748 10.1632 19.3287 10.3009C19.2827 10.4386 19.2088 10.5653 19.1119 10.6734C19.0149 10.7814 18.8968 10.8685 18.7648 10.9291C18.6329 10.9897 18.4899 11.0226 18.3448 11.0259C18.1996 11.0291 18.0554 11.0025 17.9209 10.9478C17.7864 10.8931 17.6645 10.8115 17.5628 10.7078C16.7225 9.95101 15.6309 9.53351 14.5 9.53621C13.2789 9.53621 12.1078 10.0213 11.2444 10.8848C10.3809 11.7482 9.8958 12.9193 9.8958 14.1404C9.8958 15.3615 10.3809 16.5326 11.2444 17.396C12.1078 18.2595 13.2789 18.7446 14.5 18.7446C14.742 18.7428 14.9835 18.7229 15.2225 18.6851C15.6619 18.6156 16.0884 18.4805 16.4876 18.2842C17.4303 17.8361 18.1902 17.0772 18.6395 16.1351C18.7605 15.8805 18.9776 15.6845 19.2432 15.59C19.5087 15.4956 19.8009 15.5105 20.0555 15.6314C20.31 15.7524 20.5061 15.9696 20.6005 16.2351C20.695 16.5007 20.6801 16.7929 20.5591 17.0474C19.9008 18.4279 18.7886 19.5406 17.4084 20.1995C16.8185 20.4877 16.1886 20.6854 15.5398 20.786C15.1958 20.8396 14.8482 20.8675 14.5 20.8696Z" fill="white"/>
</svg>
