<svg width="21" height="29" viewBox="0 0 21 29" fill="none" xmlns="http://www.w3.org/2000/svg">
<path d="M4.32999 16.994L0.327987 25.53C0.201987 25.788 0.334987 25.95 0.754987 25.87L4.01299 25.162C4.07754 25.1394 4.14861 25.145 4.20888 25.1773C4.26914 25.2096 4.31308 25.2658 4.32999 25.332L5.79699 28.339C5.93699 28.663 6.09899 28.729 6.22499 28.472L10.485 19.538L4.32999 16.994ZM16.67 16.994L20.672 25.53C20.805 25.788 20.665 25.95 20.245 25.87L16.987 25.162C16.9224 25.1401 16.8516 25.1459 16.7915 25.1781C16.7314 25.2104 16.6874 25.2661 16.67 25.332L15.203 28.339C15.063 28.663 14.908 28.729 14.775 28.472L10.515 19.538L16.67 16.994Z" fill="#DE7818"/>
<path fill-rule="evenodd" clip-rule="evenodd" d="M9.29798 22.0219C9.29798 22.0289 9.28398 22.0219 9.26898 22.0219C7.03576 21.7742 4.94206 20.8126 3.29898 19.2799C3.29098 19.2719 3.26898 19.2649 3.27598 19.2569L3.45998 18.8669C3.46798 18.8519 3.48198 18.8889 3.48998 18.8969C5.06698 20.3629 7.25698 21.2849 9.49698 21.5569C9.50498 21.5569 9.51998 21.5569 9.51998 21.5649L9.29798 22.0219Z" fill="#B35454"/>
<path d="M10.5 21.608C16.2929 21.608 20.989 16.9119 20.989 11.119C20.989 5.32609 16.2929 0.630005 10.5 0.630005C4.70707 0.630005 0.0109863 5.32609 0.0109863 11.119C0.0109863 16.9119 4.70707 21.608 10.5 21.608Z" fill="#9B9B9B"/>
<path d="M10.5 20.164C15.4954 20.164 19.545 16.1144 19.545 11.119C19.545 6.12356 15.4954 2.07397 10.5 2.07397C5.50457 2.07397 1.45499 6.12356 1.45499 11.119C1.45499 16.1144 5.50457 20.164 10.5 20.164Z" fill="#949494"/>
<path d="M10.75 20.13C15.5825 20.13 19.5 16.2125 19.5 11.38C19.5 6.54751 15.5825 2.63 10.75 2.63C5.91751 2.63 2 6.54751 2 11.38C2 16.2125 5.91751 20.13 10.75 20.13Z" fill="#B6B6B6"/>
<path fill-rule="evenodd" clip-rule="evenodd" d="M7.18997 9.64796V9.68396H9.15897V9.64296C9.15897 8.94496 9.66297 8.45296 10.389 8.45296C11.086 8.45296 11.544 8.86896 11.544 9.48996C11.544 9.98796 11.227 10.416 9.98397 11.564L7.31397 14.078V15.514H13.741V13.838H10.178V13.727L11.573 12.443C13.073 11.107 13.623 10.275 13.623 9.33796C13.623 7.84396 12.358 6.82996 10.465 6.82996C8.50297 6.82996 7.18997 7.96696 7.18997 9.64796Z" fill="#EFEFEF"/>
<path fill-rule="evenodd" clip-rule="evenodd" d="M12.97 3.71899C16.3261 4.52113 18.7213 7.48251 18.8042 10.9321C18.887 14.3817 16.6367 17.4547 13.323 18.417C15.358 16.862 16.707 14.208 16.707 11.193C16.707 8.00899 15.203 5.22999 12.969 3.71899H12.97Z" fill="white" fill-opacity="0.2"/>
<path fill-rule="evenodd" clip-rule="evenodd" d="M11.702 22.022C11.709 22.029 11.724 22.022 11.731 22.022C14.024 21.734 16.131 20.812 17.717 19.294C17.724 19.287 17.746 19.28 17.739 19.272L17.554 18.882C17.547 18.867 17.532 18.904 17.524 18.911C15.947 20.378 13.751 21.285 11.503 21.557C11.495 21.557 11.48 21.557 11.48 21.565L11.702 22.022Z" fill="#B35454"/>
</svg>
