<svg xmlns="http://www.w3.org/2000/svg" width="1440" height="745" viewBox="0 0 1440 745" fill="none"><g filter="url(#filter0_f_12613_31851)"><path fill-rule="evenodd" clip-rule="evenodd" d="M687.061 447.492C835.393 451.363 902.797 579.461 1014.21 652.001C1140.48 734.213 1325.42 745.369 1334.68 869.61C1343.94 993.986 1152.99 1069.29 1014.21 1139.84C905.581 1195.07 779.467 1231.58 648.894 1218.25C532.771 1206.39 460.597 1131.24 372.187 1074.3C272.125 1009.85 123.173 967.07 107.565 869.61C91.2869 767.966 243.6 710.502 335.983 634.301C436.038 551.772 537.293 443.583 687.061 447.492Z" fill="url(#paint0_linear_12613_31851)"></path></g><g style="mix-blend-mode:overlay" opacity="0.3"><rect x="-48" y="-16" width="48" height="48" stroke="#EBF9F5"></rect><rect y="-16" width="48" height="48" stroke="#EBF9F5"></rect><rect x="48" y="-16" width="48" height="48" stroke="#EBF9F5"></rect><rect x="96" y="-16" width="48" height="48" stroke="#EBF9F5"></rect><rect x="144" y="-16" width="48" height="48" stroke="#EBF9F5"></rect><rect x="192" y="-16" width="48" height="48" stroke="#EBF9F5"></rect><rect x="240" y="-16" width="48" height="48" stroke="#EBF9F5"></rect><rect x="288" y="-16" width="48" height="48" stroke="#EBF9F5"></rect><rect x="336" y="-16" width="48" height="48" stroke="#EBF9F5"></rect><rect x="384" y="-16" width="48" height="48" stroke="#EBF9F5"></rect><rect x="432" y="-16" width="48" height="48" stroke="#EBF9F5"></rect><rect x="480" y="-16" width="48" height="48" stroke="#EBF9F5"></rect><rect x="528" y="-16" width="48" height="48" stroke="#EBF9F5"></rect><rect x="576" y="-16" width="48" height="48" stroke="#EBF9F5"></rect><rect x="624" y="-16" width="48" height="48" stroke="#EBF9F5"></rect><rect x="672" y="-16" width="48" height="48" stroke="#EBF9F5"></rect><rect x="720" y="-16" width="48" height="48" stroke="#EBF9F5"></rect><rect x="768" y="-16" width="48" height="48" stroke="#EBF9F5"></rect><rect x="816" y="-16" width="48" height="48" stroke="#EBF9F5"></rect><rect x="864" y="-16" width="48" height="48" stroke="#EBF9F5"></rect><rect x="912" y="-16" width="48" height="48" stroke="#EBF9F5"></rect><rect x="960" y="-16" width="48" height="48" stroke="#EBF9F5"></rect><rect x="1008" y="-16" width="48" height="48" stroke="#EBF9F5"></rect><rect x="1056" y="-16" width="48" height="48" stroke="#EBF9F5"></rect><rect x="1104" y="-16" width="48" height="48" stroke="#EBF9F5"></rect><rect x="1152" y="-16" width="48" height="48" stroke="#EBF9F5"></rect><rect x="1200" y="-16" width="48" height="48" stroke="#EBF9F5"></rect><rect x="1248" y="-16" width="48" height="48" stroke="#EBF9F5"></rect><rect x="1296" y="-16" width="48" height="48" stroke="#EBF9F5"></rect><rect x="1344" y="-16" width="48" height="48" stroke="#EBF9F5"></rect><rect x="1392" y="-16" width="48" height="48" stroke="#EBF9F5"></rect><rect x="1440" y="-16" width="48" height="48" stroke="#EBF9F5"></rect><rect x="-48" y="32" width="48" height="48" stroke="#EBF9F5"></rect><rect y="32" width="48" height="48" stroke="#EBF9F5"></rect><rect x="48" y="32" width="48" height="48" stroke="#EBF9F5"></rect><rect x="96" y="32" width="48" height="48" stroke="#EBF9F5"></rect><rect x="144" y="32" width="48" height="48" stroke="#EBF9F5"></rect><rect x="192" y="32" width="48" height="48" stroke="#EBF9F5"></rect><rect x="240" y="32" width="48" height="48" stroke="#EBF9F5"></rect><rect x="288" y="32" width="48" height="48" stroke="#EBF9F5"></rect><rect x="336" y="32" width="48" height="48" stroke="#EBF9F5"></rect><rect x="384" y="32" width="48" height="48" stroke="#EBF9F5"></rect><rect x="432" y="32" width="48" height="48" stroke="#EBF9F5"></rect><rect x="480" y="32" width="48" height="48" stroke="#EBF9F5"></rect><rect x="528" y="32" width="48" height="48" stroke="#EBF9F5"></rect><rect x="576" y="32" width="48" height="48" stroke="#EBF9F5"></rect><rect x="624" y="32" width="48" height="48" stroke="#EBF9F5"></rect><rect x="672" y="32" width="48" height="48" stroke="#EBF9F5"></rect><rect x="720" y="32" width="48" height="48" stroke="#EBF9F5"></rect><rect x="768" y="32" width="48" height="48" stroke="#EBF9F5"></rect><rect x="816" y="32" width="48" height="48" stroke="#EBF9F5"></rect><rect x="864" y="32" width="48" height="48" stroke="#EBF9F5"></rect><rect x="912" y="32" width="48" height="48" stroke="#EBF9F5"></rect><rect x="960" y="32" width="48" height="48" stroke="#EBF9F5"></rect><rect x="1008" y="32" width="48" height="48" stroke="#EBF9F5"></rect><rect x="1056" y="32" width="48" height="48" stroke="#EBF9F5"></rect><rect x="1104" y="32" width="48" height="48" stroke="#EBF9F5"></rect><rect x="1152" y="32" width="48" height="48" stroke="#EBF9F5"></rect><rect x="1200" y="32" width="48" height="48" stroke="#EBF9F5"></rect><rect x="1248" y="32" width="48" height="48" stroke="#EBF9F5"></rect><rect x="1296" y="32" width="48" height="48" stroke="#EBF9F5"></rect><rect x="1344" y="32" width="48" height="48" stroke="#EBF9F5"></rect><rect x="1392" y="32" width="48" height="48" stroke="#EBF9F5"></rect><rect x="1440" y="32" width="48" height="48" stroke="#EBF9F5"></rect><rect x="-48" y="80" width="48" height="48" stroke="#EBF9F5"></rect><rect y="80" width="48" height="48" stroke="#EBF9F5"></rect><rect x="48" y="80" width="48" height="48" stroke="#EBF9F5"></rect><rect x="96" y="80" width="48" height="48" stroke="#EBF9F5"></rect><rect x="144" y="80" width="48" height="48" stroke="#EBF9F5"></rect><rect x="192" y="80" width="48" height="48" stroke="#EBF9F5"></rect><rect x="240" y="80" width="48" height="48" stroke="#EBF9F5"></rect><rect x="288" y="80" width="48" height="48" stroke="#EBF9F5"></rect><rect x="336" y="80" width="48" height="48" stroke="#EBF9F5"></rect><rect x="384" y="80" width="48" height="48" stroke="#EBF9F5"></rect><rect x="432" y="80" width="48" height="48" stroke="#EBF9F5"></rect><rect x="480" y="80" width="48" height="48" stroke="#EBF9F5"></rect><rect x="528" y="80" width="48" height="48" stroke="#EBF9F5"></rect><rect x="576" y="80" width="48" height="48" stroke="#EBF9F5"></rect><rect x="624" y="80" width="48" height="48" stroke="#EBF9F5"></rect><rect x="672" y="80" width="48" height="48" stroke="#EBF9F5"></rect><rect x="720" y="80" width="48" height="48" stroke="#EBF9F5"></rect><rect x="768" y="80" width="48" height="48" stroke="#EBF9F5"></rect><rect x="816" y="80" width="48" height="48" stroke="#EBF9F5"></rect><rect x="864" y="80" width="48" height="48" stroke="#EBF9F5"></rect><rect x="912" y="80" width="48" height="48" stroke="#EBF9F5"></rect><rect x="960" y="80" width="48" height="48" stroke="#EBF9F5"></rect><rect x="1008" y="80" width="48" height="48" stroke="#EBF9F5"></rect><rect x="1056" y="80" width="48" height="48" stroke="#EBF9F5"></rect><rect x="1104" y="80" width="48" height="48" stroke="#EBF9F5"></rect><rect x="1152" y="80" width="48" height="48" stroke="#EBF9F5"></rect><rect x="1200" y="80" width="48" height="48" stroke="#EBF9F5"></rect><rect x="1248" y="80" width="48" height="48" stroke="#EBF9F5"></rect><rect x="1296" y="80" width="48" height="48" stroke="#EBF9F5"></rect><rect x="1344" y="80" width="48" height="48" stroke="#EBF9F5"></rect><rect x="1392" y="80" width="48" height="48" stroke="#EBF9F5"></rect><rect x="1440" y="80" width="48" height="48" stroke="#EBF9F5"></rect><rect x="-48" y="128" width="48" height="48" stroke="#EBF9F5"></rect><rect y="128" width="48" height="48" stroke="#EBF9F5"></rect><rect x="48" y="128" width="48" height="48" stroke="#EBF9F5"></rect><rect x="96" y="128" width="48" height="48" stroke="#EBF9F5"></rect><rect x="144" y="128" width="48" height="48" stroke="#EBF9F5"></rect><rect x="192" y="128" width="48" height="48" stroke="#EBF9F5"></rect><rect x="240" y="128" width="48" height="48" stroke="#EBF9F5"></rect><rect x="288" y="128" width="48" height="48" stroke="#EBF9F5"></rect><rect x="336" y="128" width="48" height="48" stroke="#EBF9F5"></rect><rect x="384" y="128" width="48" height="48" stroke="#EBF9F5"></rect><rect x="432" y="128" width="48" height="48" stroke="#EBF9F5"></rect><rect x="480" y="128" width="48" height="48" stroke="#EBF9F5"></rect><rect x="528" y="128" width="48" height="48" stroke="#EBF9F5"></rect><rect x="576" y="128" width="48" height="48" stroke="#EBF9F5"></rect><rect x="624" y="128" width="48" height="48" stroke="#EBF9F5"></rect><rect x="672" y="128" width="48" height="48" stroke="#EBF9F5"></rect><rect x="720" y="128" width="48" height="48" stroke="#EBF9F5"></rect><rect x="768" y="128" width="48" height="48" stroke="#EBF9F5"></rect><rect x="816" y="128" width="48" height="48" stroke="#EBF9F5"></rect><rect x="864" y="128" width="48" height="48" stroke="#EBF9F5"></rect><rect x="912" y="128" width="48" height="48" stroke="#EBF9F5"></rect><rect x="960" y="128" width="48" height="48" stroke="#EBF9F5"></rect><rect x="1008" y="128" width="48" height="48" stroke="#EBF9F5"></rect><rect x="1056" y="128" width="48" height="48" stroke="#EBF9F5"></rect><rect x="1104" y="128" width="48" height="48" stroke="#EBF9F5"></rect><rect x="1152" y="128" width="48" height="48" stroke="#EBF9F5"></rect><rect x="1200" y="128" width="48" height="48" stroke="#EBF9F5"></rect><rect x="1248" y="128" width="48" height="48" stroke="#EBF9F5"></rect><rect x="1296" y="128" width="48" height="48" stroke="#EBF9F5"></rect><rect x="1344" y="128" width="48" height="48" stroke="#EBF9F5"></rect><rect x="1392" y="128" width="48" height="48" stroke="#EBF9F5"></rect><rect x="1440" y="128" width="48" height="48" stroke="#EBF9F5"></rect><rect x="-48" y="176" width="48" height="48" stroke="#EBF9F5"></rect><rect y="176" width="48" height="48" stroke="#EBF9F5"></rect><rect x="48" y="176" width="48" height="48" stroke="#EBF9F5"></rect><rect x="96" y="176" width="48" height="48" stroke="#EBF9F5"></rect><rect x="144" y="176" width="48" height="48" stroke="#EBF9F5"></rect><rect x="192" y="176" width="48" height="48" stroke="#EBF9F5"></rect><rect x="240" y="176" width="48" height="48" stroke="#EBF9F5"></rect><rect x="288" y="176" width="48" height="48" stroke="#EBF9F5"></rect><rect x="336" y="176" width="48" height="48" stroke="#EBF9F5"></rect><rect x="384" y="176" width="48" height="48" stroke="#EBF9F5"></rect><rect x="432" y="176" width="48" height="48" stroke="#EBF9F5"></rect><rect x="480" y="176" width="48" height="48" stroke="#EBF9F5"></rect><rect x="528" y="176" width="48" height="48" stroke="#EBF9F5"></rect><rect x="576" y="176" width="48" height="48" stroke="#EBF9F5"></rect><rect x="624" y="176" width="48" height="48" stroke="#EBF9F5"></rect><rect x="672" y="176" width="48" height="48" stroke="#EBF9F5"></rect><rect x="720" y="176" width="48" height="48" stroke="#EBF9F5"></rect><rect x="768" y="176" width="48" height="48" stroke="#EBF9F5"></rect><rect x="816" y="176" width="48" height="48" stroke="#EBF9F5"></rect><rect x="864" y="176" width="48" height="48" stroke="#EBF9F5"></rect><rect x="912" y="176" width="48" height="48" stroke="#EBF9F5"></rect><rect x="960" y="176" width="48" height="48" stroke="#EBF9F5"></rect><rect x="1008" y="176" width="48" height="48" stroke="#EBF9F5"></rect><rect x="1056" y="176" width="48" height="48" stroke="#EBF9F5"></rect><rect x="1104" y="176" width="48" height="48" stroke="#EBF9F5"></rect><rect x="1152" y="176" width="48" height="48" stroke="#EBF9F5"></rect><rect x="1200" y="176" width="48" height="48" stroke="#EBF9F5"></rect><rect x="1248" y="176" width="48" height="48" stroke="#EBF9F5"></rect><rect x="1296" y="176" width="48" height="48" stroke="#EBF9F5"></rect><rect x="1344" y="176" width="48" height="48" stroke="#EBF9F5"></rect><rect x="1392" y="176" width="48" height="48" stroke="#EBF9F5"></rect><rect x="1440" y="176" width="48" height="48" stroke="#EBF9F5"></rect><rect x="-48" y="224" width="48" height="48" stroke="#EBF9F5"></rect><rect y="224" width="48" height="48" stroke="#EBF9F5"></rect><rect x="48" y="224" width="48" height="48" stroke="#EBF9F5"></rect><rect x="96" y="224" width="48" height="48" stroke="#EBF9F5"></rect><rect x="144" y="224" width="48" height="48" stroke="#EBF9F5"></rect><rect x="192" y="224" width="48" height="48" stroke="#EBF9F5"></rect><rect x="240" y="224" width="48" height="48" stroke="#EBF9F5"></rect><rect x="288" y="224" width="48" height="48" stroke="#EBF9F5"></rect><rect x="336" y="224" width="48" height="48" stroke="#EBF9F5"></rect><rect x="384" y="224" width="48" height="48" stroke="#EBF9F5"></rect><rect x="432" y="224" width="48" height="48" stroke="#EBF9F5"></rect><rect x="480" y="224" width="48" height="48" stroke="#EBF9F5"></rect><rect x="528" y="224" width="48" height="48" stroke="#EBF9F5"></rect><rect x="576" y="224" width="48" height="48" stroke="#EBF9F5"></rect><rect x="624" y="224" width="48" height="48" stroke="#EBF9F5"></rect><rect x="672" y="224" width="48" height="48" stroke="#EBF9F5"></rect><rect x="720" y="224" width="48" height="48" stroke="#EBF9F5"></rect><rect x="768" y="224" width="48" height="48" stroke="#EBF9F5"></rect><rect x="816" y="224" width="48" height="48" stroke="#EBF9F5"></rect><rect x="864" y="224" width="48" height="48" stroke="#EBF9F5"></rect><rect x="912" y="224" width="48" height="48" stroke="#EBF9F5"></rect><rect x="960" y="224" width="48" height="48" stroke="#EBF9F5"></rect><rect x="1008" y="224" width="48" height="48" stroke="#EBF9F5"></rect><rect x="1056" y="224" width="48" height="48" stroke="#EBF9F5"></rect><rect x="1104" y="224" width="48" height="48" stroke="#EBF9F5"></rect><rect x="1152" y="224" width="48" height="48" stroke="#EBF9F5"></rect><rect x="1200" y="224" width="48" height="48" stroke="#EBF9F5"></rect><rect x="1248" y="224" width="48" height="48" stroke="#EBF9F5"></rect><rect x="1296" y="224" width="48" height="48" stroke="#EBF9F5"></rect><rect x="1344" y="224" width="48" height="48" stroke="#EBF9F5"></rect><rect x="1392" y="224" width="48" height="48" stroke="#EBF9F5"></rect><rect x="1440" y="224" width="48" height="48" stroke="#EBF9F5"></rect><rect x="-48" y="272" width="48" height="48" stroke="#EBF9F5"></rect><rect y="272" width="48" height="48" stroke="#EBF9F5"></rect><rect x="48" y="272" width="48" height="48" stroke="#EBF9F5"></rect><rect x="96" y="272" width="48" height="48" stroke="#EBF9F5"></rect><rect x="144" y="272" width="48" height="48" stroke="#EBF9F5"></rect><rect x="192" y="272" width="48" height="48" stroke="#EBF9F5"></rect><rect x="240" y="272" width="48" height="48" stroke="#EBF9F5"></rect><rect x="288" y="272" width="48" height="48" stroke="#EBF9F5"></rect><rect x="336" y="272" width="48" height="48" stroke="#EBF9F5"></rect><rect x="384" y="272" width="48" height="48" stroke="#EBF9F5"></rect><rect x="432" y="272" width="48" height="48" stroke="#EBF9F5"></rect><rect x="480" y="272" width="48" height="48" stroke="#EBF9F5"></rect><rect x="528" y="272" width="48" height="48" stroke="#EBF9F5"></rect><rect x="576" y="272" width="48" height="48" stroke="#EBF9F5"></rect><rect x="624" y="272" width="48" height="48" stroke="#EBF9F5"></rect><rect x="672" y="272" width="48" height="48" stroke="#EBF9F5"></rect><rect x="720" y="272" width="48" height="48" stroke="#EBF9F5"></rect><rect x="768" y="272" width="48" height="48" stroke="#EBF9F5"></rect><rect x="816" y="272" width="48" height="48" stroke="#EBF9F5"></rect><rect x="864" y="272" width="48" height="48" stroke="#EBF9F5"></rect><rect x="912" y="272" width="48" height="48" stroke="#EBF9F5"></rect><rect x="960" y="272" width="48" height="48" stroke="#EBF9F5"></rect><rect x="1008" y="272" width="48" height="48" stroke="#EBF9F5"></rect><rect x="1056" y="272" width="48" height="48" stroke="#EBF9F5"></rect><rect x="1104" y="272" width="48" height="48" stroke="#EBF9F5"></rect><rect x="1152" y="272" width="48" height="48" stroke="#EBF9F5"></rect><rect x="1200" y="272" width="48" height="48" stroke="#EBF9F5"></rect><rect x="1248" y="272" width="48" height="48" stroke="#EBF9F5"></rect><rect x="1296" y="272" width="48" height="48" stroke="#EBF9F5"></rect><rect x="1344" y="272" width="48" height="48" stroke="#EBF9F5"></rect><rect x="1392" y="272" width="48" height="48" stroke="#EBF9F5"></rect><rect x="1440" y="272" width="48" height="48" stroke="#EBF9F5"></rect><rect x="-48" y="320" width="48" height="48" stroke="#EBF9F5"></rect><rect y="320" width="48" height="48" stroke="#EBF9F5"></rect><rect x="48" y="320" width="48" height="48" stroke="#EBF9F5"></rect><rect x="96" y="320" width="48" height="48" stroke="#EBF9F5"></rect><rect x="144" y="320" width="48" height="48" stroke="#EBF9F5"></rect><rect x="192" y="320" width="48" height="48" stroke="#EBF9F5"></rect><rect x="240" y="320" width="48" height="48" stroke="#EBF9F5"></rect><rect x="288" y="320" width="48" height="48" stroke="#EBF9F5"></rect><rect x="336" y="320" width="48" height="48" stroke="#EBF9F5"></rect><rect x="384" y="320" width="48" height="48" stroke="#EBF9F5"></rect><rect x="432" y="320" width="48" height="48" stroke="#EBF9F5"></rect><rect x="480" y="320" width="48" height="48" stroke="#EBF9F5"></rect><rect x="528" y="320" width="48" height="48" stroke="#EBF9F5"></rect><rect x="576" y="320" width="48" height="48" stroke="#EBF9F5"></rect><rect x="624" y="320" width="48" height="48" stroke="#EBF9F5"></rect><rect x="672" y="320" width="48" height="48" stroke="#EBF9F5"></rect><rect x="720" y="320" width="48" height="48" stroke="#EBF9F5"></rect><rect x="768" y="320" width="48" height="48" stroke="#EBF9F5"></rect><rect x="816" y="320" width="48" height="48" stroke="#EBF9F5"></rect><rect x="864" y="320" width="48" height="48" stroke="#EBF9F5"></rect><rect x="912" y="320" width="48" height="48" stroke="#EBF9F5"></rect><rect x="960" y="320" width="48" height="48" stroke="#EBF9F5"></rect><rect x="1008" y="320" width="48" height="48" stroke="#EBF9F5"></rect><rect x="1056" y="320" width="48" height="48" stroke="#EBF9F5"></rect><rect x="1104" y="320" width="48" height="48" stroke="#EBF9F5"></rect><rect x="1152" y="320" width="48" height="48" stroke="#EBF9F5"></rect><rect x="1200" y="320" width="48" height="48" stroke="#EBF9F5"></rect><rect x="1248" y="320" width="48" height="48" stroke="#EBF9F5"></rect><rect x="1296" y="320" width="48" height="48" stroke="#EBF9F5"></rect><rect x="1344" y="320" width="48" height="48" stroke="#EBF9F5"></rect><rect x="1392" y="320" width="48" height="48" stroke="#EBF9F5"></rect><rect x="1440" y="320" width="48" height="48" stroke="#EBF9F5"></rect><rect x="-48" y="368" width="48" height="48" stroke="#EBF9F5"></rect><rect y="368" width="48" height="48" stroke="#EBF9F5"></rect><rect x="48" y="368" width="48" height="48" stroke="#EBF9F5"></rect><rect x="96" y="368" width="48" height="48" stroke="#EBF9F5"></rect><rect x="144" y="368" width="48" height="48" stroke="#EBF9F5"></rect><rect x="192" y="368" width="48" height="48" stroke="#EBF9F5"></rect><rect x="240" y="368" width="48" height="48" stroke="#EBF9F5"></rect><rect x="288" y="368" width="48" height="48" stroke="#EBF9F5"></rect><rect x="336" y="368" width="48" height="48" stroke="#EBF9F5"></rect><rect x="384" y="368" width="48" height="48" stroke="#EBF9F5"></rect><rect x="432" y="368" width="48" height="48" stroke="#EBF9F5"></rect><rect x="480" y="368" width="48" height="48" stroke="#EBF9F5"></rect><rect x="528" y="368" width="48" height="48" stroke="#EBF9F5"></rect><rect x="576" y="368" width="48" height="48" stroke="#EBF9F5"></rect><rect x="624" y="368" width="48" height="48" stroke="#EBF9F5"></rect><rect x="672" y="368" width="48" height="48" stroke="#EBF9F5"></rect><rect x="720" y="368" width="48" height="48" stroke="#EBF9F5"></rect><rect x="768" y="368" width="48" height="48" stroke="#EBF9F5"></rect><rect x="816" y="368" width="48" height="48" stroke="#EBF9F5"></rect><rect x="864" y="368" width="48" height="48" stroke="#EBF9F5"></rect><rect x="912" y="368" width="48" height="48" stroke="#EBF9F5"></rect><rect x="960" y="368" width="48" height="48" stroke="#EBF9F5"></rect><rect x="1008" y="368" width="48" height="48" stroke="#EBF9F5"></rect><rect x="1056" y="368" width="48" height="48" stroke="#EBF9F5"></rect><rect x="1104" y="368" width="48" height="48" stroke="#EBF9F5"></rect><rect x="1152" y="368" width="48" height="48" stroke="#EBF9F5"></rect><rect x="1200" y="368" width="48" height="48" fill="#EBF9F5"></rect><rect x="1248" y="368" width="48" height="48" stroke="#EBF9F5"></rect><rect x="1296" y="368" width="48" height="48" stroke="#EBF9F5"></rect><rect x="1344" y="368" width="48" height="48" stroke="#EBF9F5"></rect><rect x="1392" y="368" width="48" height="48" stroke="#EBF9F5"></rect><rect x="1440" y="368" width="48" height="48" stroke="#EBF9F5"></rect><rect x="-48" y="416" width="48" height="48" stroke="#EBF9F5"></rect><rect y="416" width="48" height="48" stroke="#EBF9F5"></rect><rect x="48" y="416" width="48" height="48" stroke="#EBF9F5"></rect><rect x="96" y="416" width="48" height="48" stroke="#EBF9F5"></rect><rect x="144" y="416" width="48" height="48" stroke="#EBF9F5"></rect><rect x="192" y="416" width="48" height="48" stroke="#EBF9F5"></rect><rect x="240" y="416" width="48" height="48" stroke="#EBF9F5"></rect><rect x="288" y="416" width="48" height="48" stroke="#EBF9F5"></rect><rect x="336" y="416" width="48" height="48" stroke="#EBF9F5"></rect><rect x="384" y="416" width="48" height="48" stroke="#EBF9F5"></rect><rect x="432" y="416" width="48" height="48" stroke="#EBF9F5"></rect><rect x="480" y="416" width="48" height="48" stroke="#EBF9F5"></rect><rect x="528" y="416" width="48" height="48" stroke="#EBF9F5"></rect><rect x="576" y="416" width="48" height="48" stroke="#EBF9F5"></rect><rect x="624" y="416" width="48" height="48" stroke="#EBF9F5"></rect><rect x="672" y="416" width="48" height="48" stroke="#EBF9F5"></rect><rect x="720" y="416" width="48" height="48" stroke="#EBF9F5"></rect><rect x="768" y="416" width="48" height="48" stroke="#EBF9F5"></rect><rect x="816" y="416" width="48" height="48" stroke="#EBF9F5"></rect><rect x="864" y="416" width="48" height="48" stroke="#EBF9F5"></rect><rect x="912" y="416" width="48" height="48" stroke="#EBF9F5"></rect><rect x="960" y="416" width="48" height="48" stroke="#EBF9F5"></rect><rect x="1008" y="416" width="48" height="48" stroke="#EBF9F5"></rect><rect x="1056" y="416" width="48" height="48" stroke="#EBF9F5"></rect><rect x="1104" y="416" width="48" height="48" stroke="#EBF9F5"></rect><rect x="1152" y="416" width="48" height="48" stroke="#EBF9F5"></rect><rect x="1200" y="416" width="48" height="48" stroke="#EBF9F5"></rect><rect x="1248" y="416" width="48" height="48" stroke="#EBF9F5"></rect><rect x="1296" y="416" width="48" height="48" stroke="#EBF9F5"></rect><rect x="1344" y="416" width="48" height="48" stroke="#EBF9F5"></rect><rect x="1392" y="416" width="48" height="48" stroke="#EBF9F5"></rect><rect x="1440" y="416" width="48" height="48" stroke="#EBF9F5"></rect><rect x="-48" y="464" width="48" height="48" stroke="#EBF9F5"></rect><rect y="464" width="48" height="48" stroke="#EBF9F5"></rect><rect x="48" y="464" width="48" height="48" fill="#EBF9F5"></rect><rect x="96" y="464" width="48" height="48" stroke="#EBF9F5"></rect><rect x="144" y="464" width="48" height="48" stroke="#EBF9F5"></rect><rect x="192" y="464" width="48" height="48" stroke="#EBF9F5"></rect><rect x="240" y="464" width="48" height="48" stroke="#EBF9F5"></rect><rect x="288" y="464" width="48" height="48" stroke="#EBF9F5"></rect><rect x="336" y="464" width="48" height="48" stroke="#EBF9F5"></rect><rect x="384" y="464" width="48" height="48" stroke="#EBF9F5"></rect><rect x="432" y="464" width="48" height="48" stroke="#EBF9F5"></rect><rect x="480" y="464" width="48" height="48" stroke="#EBF9F5"></rect><rect x="528" y="464" width="48" height="48" stroke="#EBF9F5"></rect><rect x="576" y="464" width="48" height="48" stroke="#EBF9F5"></rect><rect x="624" y="464" width="48" height="48" stroke="#EBF9F5"></rect><rect x="672" y="464" width="48" height="48" stroke="#EBF9F5"></rect><rect x="720" y="464" width="48" height="48" stroke="#EBF9F5"></rect><rect x="768" y="464" width="48" height="48" stroke="#EBF9F5"></rect><rect x="816" y="464" width="48" height="48" stroke="#EBF9F5"></rect><rect x="864" y="464" width="48" height="48" stroke="#EBF9F5"></rect><rect x="912" y="464" width="48" height="48" stroke="#EBF9F5"></rect><rect x="960" y="464" width="48" height="48" stroke="#EBF9F5"></rect><rect x="1008" y="464" width="48" height="48" stroke="#EBF9F5"></rect><rect x="1056" y="464" width="48" height="48" stroke="#EBF9F5"></rect><rect x="1104" y="464" width="48" height="48" stroke="#EBF9F5"></rect><rect x="1152" y="464" width="48" height="48" stroke="#EBF9F5"></rect><rect x="1200" y="464" width="48" height="48" stroke="#EBF9F5"></rect><rect x="1248" y="464" width="48" height="48" stroke="#EBF9F5"></rect><rect x="1296" y="464" width="48" height="48" stroke="#EBF9F5"></rect><rect x="1344" y="464" width="48" height="48" stroke="#EBF9F5"></rect><rect x="1392" y="464" width="48" height="48" stroke="#EBF9F5"></rect><rect x="1440" y="464" width="48" height="48" stroke="#EBF9F5"></rect><rect x="-48" y="512" width="48" height="48" stroke="#EBF9F5"></rect><rect y="512" width="48" height="48" stroke="#EBF9F5"></rect><rect x="48" y="512" width="48" height="48" stroke="#EBF9F5"></rect><rect x="96" y="512" width="48" height="48" stroke="#EBF9F5"></rect><rect x="144" y="512" width="48" height="48" stroke="#EBF9F5"></rect><rect x="192" y="512" width="48" height="48" stroke="#EBF9F5"></rect><rect x="240" y="512" width="48" height="48" stroke="#EBF9F5"></rect><rect x="288" y="512" width="48" height="48" stroke="#EBF9F5"></rect><rect x="336" y="512" width="48" height="48" stroke="#EBF9F5"></rect><rect x="384" y="512" width="48" height="48" stroke="#EBF9F5"></rect><rect x="432" y="512" width="48" height="48" stroke="#EBF9F5"></rect><rect x="480" y="512" width="48" height="48" stroke="#EBF9F5"></rect><rect x="528" y="512" width="48" height="48" stroke="#EBF9F5"></rect><rect x="576" y="512" width="48" height="48" stroke="#EBF9F5"></rect><rect x="624" y="512" width="48" height="48" stroke="#EBF9F5"></rect><rect x="672" y="512" width="48" height="48" stroke="#EBF9F5"></rect><rect x="720" y="512" width="48" height="48" stroke="#EBF9F5"></rect><rect x="768" y="512" width="48" height="48" stroke="#EBF9F5"></rect><rect x="816" y="512" width="48" height="48" stroke="#EBF9F5"></rect><rect x="864" y="512" width="48" height="48" stroke="#EBF9F5"></rect><rect x="912" y="512" width="48" height="48" stroke="#EBF9F5"></rect><rect x="960" y="512" width="48" height="48" stroke="#EBF9F5"></rect><rect x="1008" y="512" width="48" height="48" stroke="#EBF9F5"></rect><rect x="1056" y="512" width="48" height="48" stroke="#EBF9F5"></rect><rect x="1104" y="512" width="48" height="48" stroke="#EBF9F5"></rect><rect x="1152" y="512" width="48" height="48" stroke="#EBF9F5"></rect><rect x="1200" y="512" width="48" height="48" stroke="#EBF9F5"></rect><rect x="1248" y="512" width="48" height="48" stroke="#EBF9F5"></rect><rect x="1296" y="512" width="48" height="48" stroke="#EBF9F5"></rect><rect x="1344" y="512" width="48" height="48" stroke="#EBF9F5"></rect><rect x="1392" y="512" width="48" height="48" stroke="#EBF9F5"></rect><rect x="1440" y="512" width="48" height="48" stroke="#EBF9F5"></rect><rect x="-48" y="560" width="48" height="48" stroke="#EBF9F5"></rect><rect y="560" width="48" height="48" stroke="#EBF9F5"></rect><rect x="48" y="560" width="48" height="48" stroke="#EBF9F5"></rect><rect x="96" y="560" width="48" height="48" stroke="#EBF9F5"></rect><rect x="144" y="560" width="48" height="48" stroke="#EBF9F5"></rect><rect x="192" y="560" width="48" height="48" stroke="#EBF9F5"></rect><rect x="240" y="560" width="48" height="48" stroke="#EBF9F5"></rect><rect x="288" y="560" width="48" height="48" stroke="#EBF9F5"></rect><rect x="336" y="560" width="48" height="48" stroke="#EBF9F5"></rect><rect x="384" y="560" width="48" height="48" stroke="#EBF9F5"></rect><rect x="432" y="560" width="48" height="48" stroke="#EBF9F5"></rect><rect x="480" y="560" width="48" height="48" stroke="#EBF9F5"></rect><rect x="528" y="560" width="48" height="48" stroke="#EBF9F5"></rect><rect x="576" y="560" width="48" height="48" stroke="#EBF9F5"></rect><rect x="624" y="560" width="48" height="48" stroke="#EBF9F5"></rect><rect x="672" y="560" width="48" height="48" stroke="#EBF9F5"></rect><rect x="720" y="560" width="48" height="48" stroke="#EBF9F5"></rect><rect x="768" y="560" width="48" height="48" stroke="#EBF9F5"></rect><rect x="816" y="560" width="48" height="48" stroke="#EBF9F5"></rect><rect x="864" y="560" width="48" height="48" stroke="#EBF9F5"></rect><rect x="912" y="560" width="48" height="48" stroke="#EBF9F5"></rect><rect x="960" y="560" width="48" height="48" stroke="#EBF9F5"></rect><rect x="1008" y="560" width="48" height="48" stroke="#EBF9F5"></rect><rect x="1056" y="560" width="48" height="48" stroke="#EBF9F5"></rect><rect x="1104" y="560" width="48" height="48" stroke="#EBF9F5"></rect><rect x="1152" y="560" width="48" height="48" stroke="#EBF9F5"></rect><rect x="1200" y="560" width="48" height="48" stroke="#EBF9F5"></rect><rect x="1248" y="560" width="48" height="48" stroke="#EBF9F5"></rect><rect x="1296" y="560" width="48" height="48" stroke="#EBF9F5"></rect><rect x="1344" y="560" width="48" height="48" stroke="#EBF9F5"></rect><rect x="1392" y="560" width="48" height="48" fill="#EBF9F5"></rect><rect x="1440" y="560" width="48" height="48" stroke="#EBF9F5"></rect><rect x="-48" y="608" width="48" height="48" stroke="#EBF9F5"></rect><rect y="608" width="48" height="48" stroke="#EBF9F5"></rect><rect x="48" y="608" width="48" height="48" stroke="#EBF9F5"></rect><rect x="96" y="608" width="48" height="48" stroke="#EBF9F5"></rect><rect x="144" y="608" width="48" height="48" stroke="#EBF9F5"></rect><rect x="192" y="608" width="48" height="48" stroke="#EBF9F5"></rect><rect x="240" y="608" width="48" height="48" stroke="#EBF9F5"></rect><rect x="288" y="608" width="48" height="48" stroke="#EBF9F5"></rect><rect x="336" y="608" width="48" height="48" fill="#EBF9F5"></rect><rect x="384" y="608" width="48" height="48" stroke="#EBF9F5"></rect><rect x="432" y="608" width="48" height="48" stroke="#EBF9F5"></rect><rect x="480" y="608" width="48" height="48" stroke="#EBF9F5"></rect><rect x="528" y="608" width="48" height="48" stroke="#EBF9F5"></rect><rect x="576" y="608" width="48" height="48" stroke="#EBF9F5"></rect><rect x="624" y="608" width="48" height="48" stroke="#EBF9F5"></rect><rect x="672" y="608" width="48" height="48" stroke="#EBF9F5"></rect><rect x="720" y="608" width="48" height="48" stroke="#EBF9F5"></rect><rect x="768" y="608" width="48" height="48" stroke="#EBF9F5"></rect><rect x="816" y="608" width="48" height="48" stroke="#EBF9F5"></rect><rect x="864" y="608" width="48" height="48" stroke="#EBF9F5"></rect><rect x="912" y="608" width="48" height="48" stroke="#EBF9F5"></rect><rect x="960" y="608" width="48" height="48" stroke="#EBF9F5"></rect><rect x="1008" y="608" width="48" height="48" stroke="#EBF9F5"></rect><rect x="1056" y="608" width="48" height="48" stroke="#EBF9F5"></rect><rect x="1104" y="608" width="48" height="48" stroke="#EBF9F5"></rect><rect x="1152" y="608" width="48" height="48" stroke="#EBF9F5"></rect><rect x="1200" y="608" width="48" height="48" stroke="#EBF9F5"></rect><rect x="1248" y="608" width="48" height="48" stroke="#EBF9F5"></rect><rect x="1296" y="608" width="48" height="48" stroke="#EBF9F5"></rect><rect x="1344" y="608" width="48" height="48" stroke="#EBF9F5"></rect><rect x="1392" y="608" width="48" height="48" stroke="#EBF9F5"></rect><rect x="1440" y="608" width="48" height="48" stroke="#EBF9F5"></rect><rect x="-48" y="656" width="48" height="48" stroke="#EBF9F5"></rect><rect y="656" width="48" height="48" stroke="#EBF9F5"></rect><rect x="48" y="656" width="48" height="48" stroke="#EBF9F5"></rect><rect x="96" y="656" width="48" height="48" stroke="#EBF9F5"></rect><rect x="144" y="656" width="48" height="48" stroke="#EBF9F5"></rect><rect x="192" y="656" width="48" height="48" stroke="#EBF9F5"></rect><rect x="240" y="656" width="48" height="48" stroke="#EBF9F5"></rect><rect x="288" y="656" width="48" height="48" stroke="#EBF9F5"></rect><rect x="336" y="656" width="48" height="48" stroke="#EBF9F5"></rect><rect x="384" y="656" width="48" height="48" stroke="#EBF9F5"></rect><rect x="432" y="656" width="48" height="48" stroke="#EBF9F5"></rect><rect x="480" y="656" width="48" height="48" stroke="#EBF9F5"></rect><rect x="528" y="656" width="48" height="48" stroke="#EBF9F5"></rect><rect x="576" y="656" width="48" height="48" stroke="#EBF9F5"></rect><rect x="624" y="656" width="48" height="48" stroke="#EBF9F5"></rect><rect x="672" y="656" width="48" height="48" stroke="#EBF9F5"></rect><rect x="720" y="656" width="48" height="48" stroke="#EBF9F5"></rect><rect x="768" y="656" width="48" height="48" stroke="#EBF9F5"></rect><rect x="816" y="656" width="48" height="48" stroke="#EBF9F5"></rect><rect x="864" y="656" width="48" height="48" stroke="#EBF9F5"></rect><rect x="912" y="656" width="48" height="48" stroke="#EBF9F5"></rect><rect x="960" y="656" width="48" height="48" fill="#EBF9F5"></rect><rect x="1008" y="656" width="48" height="48" stroke="#EBF9F5"></rect><rect x="1056" y="656" width="48" height="48" stroke="#EBF9F5"></rect><rect x="1104" y="656" width="48" height="48" stroke="#EBF9F5"></rect><rect x="1152" y="656" width="48" height="48" stroke="#EBF9F5"></rect><rect x="1200" y="656" width="48" height="48" stroke="#EBF9F5"></rect><rect x="1248" y="656" width="48" height="48" stroke="#EBF9F5"></rect><rect x="1296" y="656" width="48" height="48" stroke="#EBF9F5"></rect><rect x="1344" y="656" width="48" height="48" stroke="#EBF9F5"></rect><rect x="1392" y="656" width="48" height="48" stroke="#EBF9F5"></rect><rect x="1440" y="656" width="48" height="48" stroke="#EBF9F5"></rect><rect x="-48" y="704" width="48" height="48" stroke="#EBF9F5"></rect><rect y="704" width="48" height="48" stroke="#EBF9F5"></rect><rect x="48" y="704" width="48" height="48" stroke="#EBF9F5"></rect><rect x="96" y="704" width="48" height="48" stroke="#EBF9F5"></rect><rect x="144" y="704" width="48" height="48" stroke="#EBF9F5"></rect><rect x="192" y="704" width="48" height="48" stroke="#EBF9F5"></rect><rect x="240" y="704" width="48" height="48" stroke="#EBF9F5"></rect><rect x="288" y="704" width="48" height="48" stroke="#EBF9F5"></rect><rect x="336" y="704" width="48" height="48" stroke="#EBF9F5"></rect><rect x="384" y="704" width="48" height="48" stroke="#EBF9F5"></rect><rect x="432" y="704" width="48" height="48" stroke="#EBF9F5"></rect><rect x="480" y="704" width="48" height="48" stroke="#EBF9F5"></rect><rect x="528" y="704" width="48" height="48" stroke="#EBF9F5"></rect><rect x="576" y="704" width="48" height="48" stroke="#EBF9F5"></rect><rect x="624" y="704" width="48" height="48" fill="#EBF9F5"></rect><rect x="672" y="704" width="48" height="48" stroke="#EBF9F5"></rect><rect x="720" y="704" width="48" height="48" stroke="#EBF9F5"></rect><rect x="768" y="704" width="48" height="48" stroke="#EBF9F5"></rect><rect x="816" y="704" width="48" height="48" stroke="#EBF9F5"></rect><rect x="864" y="704" width="48" height="48" stroke="#EBF9F5"></rect><rect x="912" y="704" width="48" height="48" stroke="#EBF9F5"></rect><rect x="960" y="704" width="48" height="48" stroke="#EBF9F5"></rect><rect x="1008" y="704" width="48" height="48" stroke="#EBF9F5"></rect><rect x="1056" y="704" width="48" height="48" stroke="#EBF9F5"></rect><rect x="1104" y="704" width="48" height="48" stroke="#EBF9F5"></rect><rect x="1152" y="704" width="48" height="48" stroke="#EBF9F5"></rect><rect x="1200" y="704" width="48" height="48" stroke="#EBF9F5"></rect><rect x="1248" y="704" width="48" height="48" stroke="#EBF9F5"></rect><rect x="1296" y="704" width="48" height="48" stroke="#EBF9F5"></rect><rect x="1344" y="704" width="48" height="48" stroke="#EBF9F5"></rect><rect x="1392" y="704" width="48" height="48" stroke="#EBF9F5"></rect><rect x="1440" y="704" width="48" height="48" stroke="#EBF9F5"></rect></g><defs><filter id="filter0_f_12613_31851" x="-129.641" y="211.389" width="1700.64" height="1245.61" filterUnits="userSpaceOnUse" color-interpolation-filters="sRGB"><feGaussianBlur stdDeviation="118"></feGaussianBlur></filter><linearGradient id="paint0_linear_12613_31851" x1="720.502" y1="423" x2="720.502" y2="1221" gradientUnits="userSpaceOnUse"><stop offset="0.282119" stop-color="#F3E98D"></stop><stop offset="0.409838" stop-color="#11BF85"></stop><stop offset="0.515625" stop-color="#005E54"></stop></linearGradient></defs></svg>