<svg xmlns="http://www.w3.org/2000/svg" width="160" height="40" viewBox="0 0 160 40" fill="none"><path d="M6.83539 15.1914V39.7572H0V15.1914H6.83539Z" fill="white"></path><path d="M23.617 20.1191C25.8608 20.1191 27.6187 20.871 28.891 22.3745C30.1632 23.8549 30.7993 25.879 30.7993 28.4466V39.7579H24.0334V29.314C24.0334 28.1805 23.7326 27.3016 23.1312 26.677C22.5529 26.0293 21.7664 25.7055 20.7718 25.7055C19.754 25.7055 18.9444 26.0409 18.343 26.7117C17.7415 27.3594 17.4408 28.2615 17.4408 29.4181V39.7579H10.6055V20.2926H17.4408V23.5543C17.996 22.5133 18.8056 21.6806 19.8697 21.056C20.9337 20.4314 22.1828 20.1191 23.617 20.1191Z" fill="white"></path><path d="M41.8192 20.0488C44.3869 20.0488 46.434 20.6734 47.9607 21.9225C49.4874 23.1716 50.4473 24.8255 50.8406 26.8842H44.4563C44.2944 26.1903 43.9589 25.6698 43.45 25.3229C42.9642 24.9759 42.3628 24.8023 41.6458 24.8023C41.1368 24.8023 40.7437 24.9181 40.4661 25.1494C40.2116 25.3576 40.0845 25.6582 40.0845 26.0515C40.0845 26.5372 40.3619 26.9073 40.9172 27.1618C41.4954 27.3931 42.4323 27.6591 43.7276 27.9598C45.2312 28.2836 46.4687 28.6306 47.4402 29.0007C48.4349 29.3708 49.2908 29.9722 50.0079 30.8051C50.7481 31.6378 51.1182 32.7597 51.1182 34.1706C51.1182 35.3041 50.8059 36.3103 50.1813 37.1893C49.5568 38.0684 48.6431 38.7623 47.4402 39.2712C46.2606 39.757 44.8611 39.9998 43.2419 39.9998C40.5124 39.9998 38.3379 39.41 36.7188 38.2302C35.0995 37.0505 34.1165 35.3619 33.7695 33.1644H40.3273C40.4198 33.8815 40.7205 34.4136 41.2295 34.7605C41.7614 35.1075 42.4207 35.281 43.2072 35.281C43.7393 35.281 44.144 35.1653 44.4215 34.934C44.6991 34.7027 44.8379 34.4019 44.8379 34.0319C44.8379 33.4767 44.5372 33.0719 43.9358 32.8175C43.3575 32.563 42.4207 32.3086 41.1253 32.0541C39.6449 31.7535 38.4305 31.4295 37.4822 31.0826C36.5337 30.7125 35.7009 30.1342 34.9839 29.3478C34.29 28.5381 33.943 27.4278 33.943 26.0168C33.943 24.2587 34.6254 22.8246 35.9901 21.7143C37.3549 20.6041 39.2979 20.0488 41.8192 20.0488Z" fill="white"></path><path d="M65.7024 33.9271V39.7563H62.8919C60.5093 39.7563 58.6472 39.1664 57.3056 37.9867C55.964 36.807 55.2932 34.8524 55.2932 32.1229V25.9814H52.7949V20.2911H55.2932V15.5723H62.1286V20.2911H65.633V25.9814H62.1286V32.2617C62.1286 32.8631 62.2557 33.291 62.5102 33.5455C62.7878 33.7998 63.2389 33.9271 63.8635 33.9271H65.7024Z" fill="white"></path><path d="M76.0415 20.0488C77.4063 20.0488 78.586 20.3496 79.5807 20.951C80.5985 21.5293 81.3503 22.3388 81.836 23.3798V20.2918H88.6367V39.757H81.836V36.6689C81.3503 37.7098 80.5985 38.531 79.5807 39.1324C78.586 39.7107 77.4063 39.9998 76.0415 39.9998C74.4918 39.9998 73.0923 39.6066 71.8433 38.8201C70.5941 38.0105 69.6111 36.8539 68.894 35.3504C68.1768 33.8237 67.8184 32.0426 67.8184 30.007C67.8184 27.9714 68.1768 26.2018 68.894 24.6983C69.6111 23.1947 70.5941 22.0497 71.8433 21.2633C73.0923 20.4536 74.4918 20.0488 76.0415 20.0488ZM78.2969 26.0168C77.2329 26.0168 76.3653 26.3754 75.6946 27.0925C75.0469 27.7864 74.7231 28.7579 74.7231 30.007C74.7231 31.2792 75.0469 32.2739 75.6946 32.991C76.3653 33.6849 77.2329 34.0319 78.2969 34.0319C79.3147 34.0319 80.159 33.6733 80.8298 32.9563C81.5006 32.2392 81.836 31.2561 81.836 30.007C81.836 28.781 81.5006 27.8095 80.8298 27.0925C80.159 26.3754 79.3147 26.0168 78.2969 26.0168Z" fill="white"></path><path d="M147.072 31.5339V39.7572H140.236V15.1914H150.437C153.398 15.1914 155.654 15.9431 157.204 17.4467C158.777 18.9272 159.562 20.9164 159.562 23.4147C159.562 24.9645 159.216 26.3524 158.522 27.5783C157.828 28.8043 156.788 29.7758 155.399 30.4929C154.034 31.1869 152.381 31.5339 150.437 31.5339H147.072ZM149.674 26.1558C151.664 26.1558 152.658 25.2421 152.658 23.4147C152.658 21.6105 151.664 20.7083 149.674 20.7083H147.072V26.1558H149.674Z" fill="white"></path><path d="M130.939 15.1964H137.913C138.03 15.196 138.146 15.2267 138.248 15.2854C138.352 15.3442 138.438 15.4289 138.497 15.531C138.557 15.6331 138.588 15.7491 138.589 15.8674C138.589 15.9857 138.559 16.102 138.502 16.2049L125.953 38.4697C125.762 38.8089 125.484 39.0912 125.148 39.2878C124.812 39.4843 124.43 39.5881 124.04 39.5884H118.702C118.257 39.5884 117.823 39.4531 117.457 39.2005C117.091 38.9478 116.81 38.5898 116.653 38.1739L115.346 34.7397L115.438 34.8016C115.855 35.072 116.324 35.2536 116.815 35.3353C117.306 35.417 117.809 35.397 118.291 35.2764C118.774 35.1559 119.227 34.9374 119.622 34.6346C120.016 34.3318 120.346 33.9511 120.587 33.516L128.117 20.0317H122.11C121.98 20.0343 121.854 20 121.744 19.9331C121.635 19.866 121.546 19.769 121.49 19.6534C121.433 19.5378 121.41 19.4085 121.425 19.2806C121.439 19.1528 121.491 19.0317 121.571 18.9318L136.67 0.154973C136.746 0.0724662 136.848 0.0191795 136.96 0.0042702C137.072 -0.0106392 137.184 0.0137608 137.28 0.073275C137.376 0.132789 137.448 0.223701 137.483 0.330387C137.519 0.437073 137.517 0.55287 137.476 0.657876L130.939 15.1964Z" fill="url(#paint0_linear_12310_31793)"></path><path d="M106.42 38.242C106.42 38.4186 106.385 38.5934 106.317 38.7566C106.25 38.9198 106.151 39.0679 106.026 39.1929C105.901 39.3177 105.752 39.4168 105.59 39.4843C105.426 39.5519 105.251 39.5867 105.075 39.5867H99.3493C99.0717 39.5867 98.8014 39.501 98.5744 39.3411C98.3474 39.1813 98.1761 38.9552 98.0829 38.6939L97.4026 36.7603L90.4183 17.0125C90.3453 16.8073 90.3229 16.5875 90.3525 16.3718C90.3829 16.156 90.4639 15.9506 90.5896 15.7728C90.7154 15.5949 90.8817 15.4498 91.0754 15.3496C91.2684 15.2495 91.4831 15.1971 91.7006 15.1973H96.932C97.2746 15.197 97.6093 15.3026 97.8905 15.4994C98.1718 15.6962 98.385 15.9747 98.502 16.2972L105.965 36.736L106.347 37.7794C106.398 37.9282 106.422 38.0848 106.42 38.242Z" fill="white"></path><path d="M112.226 26.564L107.924 38.7251C107.833 38.979 107.666 39.1987 107.447 39.3541C107.227 39.5096 106.964 39.5934 106.695 39.5938H99.3499C99.0716 39.5932 98.8006 39.5063 98.5736 39.3449C98.3466 39.1835 98.1753 38.9557 98.0835 38.6929L97.4004 36.7593C97.5348 36.9798 98.656 38.7009 100.052 36.7351L107.227 17.0815C107.227 17.0815 108.088 16.5597 108.615 17.0815L112.226 26.564Z" fill="white"></path><path d="M121.923 31.1261L118.677 36.9269C118.544 37.1642 118.347 37.3588 118.108 37.4876C117.868 37.6164 117.597 37.6741 117.326 37.6542C117.055 37.634 116.794 37.537 116.577 37.3744C116.359 37.2117 116.192 36.9903 116.095 36.7361L112.22 26.565L108.74 17.4213C108.665 17.2293 108.525 17.0701 108.343 16.9716C108.163 16.8733 107.952 16.842 107.751 16.8835C107.562 16.9229 107.38 16.9918 107.213 17.0879C107.391 16.5903 107.706 16.1531 108.121 15.8265C108.629 15.4198 109.26 15.198 109.91 15.1973H114.708C115.206 15.1962 115.692 15.3487 116.1 15.6341C116.508 15.9195 116.818 16.3239 116.988 16.792L121.971 30.4377C122.014 30.549 122.031 30.6684 122.024 30.7872C122.015 30.9061 121.981 31.0217 121.923 31.1261Z" fill="white"></path><defs><linearGradient id="paint0_linear_12310_31793" x1="125.973" y1="33.5919" x2="136.171" y2="-1.74933e-06" gradientUnits="userSpaceOnUse"><stop stop-color="#FE8551"></stop><stop offset="1" stop-color="#ED618E"></stop></linearGradient></defs></svg>