<svg xmlns="http://www.w3.org/2000/svg" width="456" height="456" viewBox="0 0 456 456" fill="none"><g clip-path="url(#clip0_12323_92046)"><path d="M198.422 315.98L185.296 369.223C173.414 369.608 161.676 366.537 151.504 360.386L160.255 325.424L198.422 315.98Z" fill="#F3E98D"></path><path d="M333.023 231.193L311.967 255.062L284.415 232.928L302.047 205.894C299.707 204.378 297.368 202.775 294.942 201.129L260.546 253.245H195.475C190.565 253.245 185.796 254.887 181.926 257.908C178.056 260.931 175.308 265.16 174.118 269.923L173.165 273.692C172.862 273.822 83.055 309.78 83.055 309.78C82.8347 321.554 87.1104 332.968 95.0113 341.7L177.237 314.192C194.178 315.76 247.888 320.081 265.485 317.874C283.041 315.685 295.414 298.797 299.317 284.082L339.217 237.251L333.023 231.193Z" fill="#F3E98D"></path><path d="M156.572 204.21L172.256 218.202L151.59 241.335L162.723 251.257L183.389 228.122L199.028 242.115L210.637 186.359L156.572 204.21Z" fill="#F3E98D"></path><path d="M149.64 204.6C149.15 209.064 149.179 213.571 149.727 218.029L160.6 215.906C156.138 213.016 152.39 209.15 149.64 204.6Z" fill="#11BF85"></path><path d="M86.7375 127.702C86.7334 128.666 86.4436 129.607 85.9044 130.407C85.3654 131.206 84.6011 131.828 83.7087 132.193C82.8163 132.558 81.8357 132.65 80.8909 132.458C79.9461 132.266 79.0794 131.798 78.4007 131.113C77.7219 130.428 77.2616 129.557 77.0778 128.611C76.8938 127.664 76.9948 126.685 77.3678 125.795C77.7408 124.906 78.3692 124.148 79.1734 123.616C79.9775 123.084 80.9214 122.802 81.8857 122.807C83.1775 122.814 84.4137 123.334 85.323 124.252C86.2325 125.169 86.7411 126.41 86.7375 127.702Z" fill="#11BF85"></path><path d="M331.637 274.087C327.435 270.491 322.973 266.549 318.078 262.131L321.327 258.318L331.637 274.087Z" fill="#11BF85"></path><path d="M323.192 209.061L316.391 209.364C317.54 208.673 318.577 207.811 319.466 206.809C320.604 207.719 321.858 208.476 323.192 209.061Z" fill="#11BF85"></path><path d="M177.194 314.246L161.727 319.444L160.254 325.422L198.421 315.979C186.118 315.026 177.238 314.202 177.194 314.246Z" fill="#11BF85"></path><path d="M395.925 316.237C391.896 318.187 389.085 316.757 389.34 312.035L395.925 316.237Z" fill="#11BF85"></path><path d="M409.613 293.408C407.36 293.472 405.156 292.753 403.375 291.372C406.321 289.985 408.92 290.375 409.613 293.408Z" fill="#11BF85"></path><path d="M335.016 187.833C343.117 187.149 340.301 197.756 336.403 201.654C335.666 202.607 335.969 203.25 338.309 203.43C343.204 203.82 340.951 210.838 333.154 208.499C332.406 208.546 331.685 208.801 331.074 209.235C341.562 214.217 344.417 232.238 352.778 214.251C361.095 196.324 344.07 186.837 335.016 187.833Z" fill="#11BF85"></path><path d="M392.808 286.826C392.808 287.332 392.608 287.816 392.25 288.173C391.892 288.531 391.408 288.732 390.902 288.732C390.396 288.732 389.913 288.531 389.555 288.173C389.197 287.816 388.996 287.332 388.996 286.826C388.996 286.32 389.197 285.836 389.555 285.479C389.913 285.121 390.396 284.92 390.902 284.92C391.408 284.92 391.892 285.121 392.25 285.479C392.608 285.836 392.808 286.32 392.808 286.826Z" fill="#11BF85"></path><path d="M363.39 284.918C363.39 285.424 363.19 285.907 362.832 286.265C362.474 286.623 361.99 286.824 361.484 286.824C360.978 286.824 360.495 286.623 360.137 286.265C359.779 285.907 359.578 285.424 359.578 284.918C359.578 284.412 359.779 283.928 360.137 283.57C360.495 283.212 360.978 283.012 361.484 283.012C361.99 283.012 362.474 283.212 362.832 283.57C363.19 283.928 363.39 284.412 363.39 284.918Z" fill="#11BF85"></path><path d="M358.281 260.224C358.281 260.731 358.08 261.214 357.722 261.572C357.364 261.93 356.881 262.131 356.375 262.131C355.869 262.131 355.385 261.93 355.027 261.572C354.669 261.214 354.469 260.731 354.469 260.224C354.469 259.718 354.669 259.235 355.027 258.877C355.385 258.519 355.869 258.318 356.375 258.318C356.881 258.318 357.364 258.519 357.722 258.877C358.08 259.235 358.281 259.718 358.281 260.224Z" fill="#11BF85"></path><path d="M328.562 260.224C328.562 260.731 328.361 261.214 328.004 261.572C327.646 261.93 327.162 262.131 326.656 262.131C326.15 262.131 325.667 261.93 325.309 261.572C324.951 261.214 324.75 260.731 324.75 260.224C324.75 259.718 324.951 259.235 325.309 258.877C325.667 258.519 326.15 258.318 326.656 258.318C327.162 258.318 327.646 258.519 328.004 258.877C328.361 259.235 328.562 259.718 328.562 260.224Z" fill="#11BF85"></path><path d="M324.23 231.371C324.23 231.877 324.029 232.36 323.672 232.718C323.314 233.076 322.83 233.277 322.324 233.277C321.818 233.277 321.335 233.076 320.977 232.718C320.619 232.36 320.418 231.877 320.418 231.371C320.418 230.865 320.619 230.381 320.977 230.023C321.335 229.665 321.818 229.465 322.324 229.465C322.83 229.465 323.314 229.665 323.672 230.023C324.029 230.381 324.23 230.865 324.23 231.371Z" fill="#11BF85"></path><path d="M297.886 231.847C297.886 232.354 297.686 232.837 297.328 233.195C296.97 233.553 296.486 233.754 295.98 233.754C295.474 233.754 294.991 233.553 294.633 233.195C294.275 232.837 294.074 232.354 294.074 231.847C294.074 231.341 294.275 230.858 294.633 230.5C294.991 230.142 295.474 229.941 295.98 229.941C296.486 229.941 296.97 230.142 297.328 230.5C297.686 230.858 297.886 231.341 297.886 231.847Z" fill="#11BF85"></path><path d="M283.859 200.051C283.859 200.556 283.658 201.041 283.3 201.398C282.942 201.756 282.459 201.957 281.953 201.957C281.447 201.957 280.963 201.756 280.605 201.398C280.248 201.041 280.047 200.556 280.047 200.051C280.047 199.545 280.248 199.06 280.605 198.703C280.963 198.345 281.447 198.145 281.953 198.145C282.459 198.145 282.942 198.345 283.3 198.703C283.658 199.06 283.859 199.545 283.859 200.051Z" fill="#11BF85"></path><path d="M256.297 203.17C256.297 203.675 256.096 204.16 255.738 204.517C255.38 204.875 254.897 205.076 254.39 205.076C253.884 205.076 253.401 204.875 253.043 204.517C252.685 204.16 252.484 203.675 252.484 203.17C252.484 202.664 252.685 202.179 253.043 201.822C253.401 201.465 253.884 201.264 254.39 201.264C254.897 201.264 255.38 201.465 255.738 201.822C256.096 202.179 256.297 202.664 256.297 203.17Z" fill="#11BF85"></path><path d="M256.297 178.779C256.297 179.285 256.096 179.769 255.738 180.127C255.38 180.484 254.897 180.685 254.39 180.685C253.884 180.685 253.401 180.484 253.043 180.127C252.685 179.769 252.484 179.285 252.484 178.779C252.484 178.274 252.685 177.789 253.043 177.431C253.401 177.074 253.884 176.873 254.39 176.873C254.897 176.873 255.38 177.074 255.738 177.431C256.096 177.789 256.297 178.274 256.297 178.779Z" fill="#11BF85"></path><path d="M232.789 182.937C232.789 183.443 232.588 183.928 232.23 184.285C231.872 184.643 231.389 184.843 230.883 184.843C230.376 184.843 229.893 184.643 229.535 184.285C229.177 183.928 228.977 183.443 228.977 182.937C228.977 182.432 229.177 181.947 229.535 181.589C229.893 181.232 230.376 181.031 230.883 181.031C231.389 181.031 231.872 181.232 232.23 181.589C232.588 181.947 232.789 182.432 232.789 182.937Z" fill="#11BF85"></path><path d="M229.613 156.252C229.613 156.757 229.412 157.242 229.054 157.599C228.696 157.957 228.213 158.158 227.707 158.158C227.201 158.158 226.716 157.957 226.359 157.599C226.002 157.242 225.801 156.757 225.801 156.252C225.801 155.746 226.002 155.261 226.359 154.904C226.716 154.547 227.201 154.346 227.707 154.346C228.213 154.346 228.696 154.547 229.054 154.904C229.412 155.261 229.613 155.746 229.613 156.252Z" fill="#11BF85"></path><path d="M206.175 159.631C206.175 160.136 205.975 160.621 205.617 160.978C205.26 161.336 204.775 161.537 204.269 161.537C203.764 161.537 203.279 161.336 202.921 160.978C202.564 160.621 202.363 160.136 202.363 159.631C202.363 159.125 202.564 158.64 202.921 158.283C203.279 157.925 203.764 157.725 204.269 157.725C204.775 157.725 205.26 157.925 205.617 158.283C205.975 158.64 206.175 159.125 206.175 159.631Z" fill="#11BF85"></path><path d="M27.8635 275.082C27.8635 275.278 27.786 275.465 27.6478 275.602C27.5096 275.741 27.3225 275.819 27.1271 275.819C26.9317 275.819 26.7445 275.741 26.6063 275.602C26.4681 275.465 26.3906 275.278 26.3906 275.082C26.3906 274.886 26.4681 274.699 26.6063 274.562C26.7445 274.423 26.9317 274.346 27.1271 274.346C27.3225 274.346 27.5096 274.423 27.6478 274.562C27.786 274.699 27.8635 274.886 27.8635 275.082Z" stroke="#00231F" stroke-width="1.875" stroke-linejoin="round"></path><path d="M100.471 302.831H88.7749C84.6642 302.808 80.5988 301.973 76.811 300.377C73.0235 298.781 69.5882 296.451 66.7026 293.524C63.8168 290.596 61.5371 287.128 59.9944 283.319C58.4515 279.509 57.6761 275.432 57.7121 271.321V138.662C57.7623 134.548 58.6228 130.485 60.2438 126.704C61.8649 122.923 64.2152 119.498 67.16 116.626C70.1051 113.754 73.5871 111.49 77.4075 109.963C81.2276 108.437 85.3111 107.679 89.4247 107.731H279.609C287.956 107.843 295.917 111.256 301.756 117.222C307.596 123.189 310.833 131.224 310.765 139.571V210.621" stroke="#00231F" stroke-width="1.875" stroke-linecap="round" stroke-linejoin="round"></path><path d="M291.172 301.076C296.856 298.698 301.712 294.697 305.132 289.571C308.555 284.446 310.388 278.427 310.406 272.266V271.092" stroke="#00231F" stroke-width="1.875" stroke-linecap="round" stroke-linejoin="round"></path><path d="M224.98 145.744H310.841" stroke="#00231F" stroke-width="1.875" stroke-linecap="round" stroke-linejoin="round"></path><path d="M57.9297 145.205H181.962" stroke="#00231F" stroke-width="1.875" stroke-linecap="round" stroke-linejoin="round"></path><path d="M86.7375 127.702C86.7334 128.666 86.4436 129.607 85.9044 130.407C85.3654 131.206 84.6011 131.828 83.7087 132.193C82.8163 132.558 81.8357 132.65 80.8909 132.458C79.9461 132.266 79.0794 131.798 78.4007 131.113C77.7219 130.428 77.2616 129.557 77.0778 128.611C76.8938 127.664 76.9948 126.685 77.3678 125.795C77.7408 124.906 78.3692 124.148 79.1734 123.616C79.9775 123.084 80.9214 122.802 81.8857 122.807C83.1775 122.815 84.4137 123.334 85.323 124.252C86.2325 125.169 86.7411 126.41 86.7375 127.702Z" stroke="#00231F" stroke-width="1.875" stroke-linecap="round" stroke-linejoin="round"></path><path d="M101.421 127.745C101.417 128.709 101.127 129.65 100.588 130.45C100.049 131.249 99.2848 131.871 98.3924 132.236C97.5 132.601 96.5194 132.693 95.5746 132.501C94.6297 132.309 93.7631 131.841 93.0843 131.156C92.4056 130.471 91.9452 129.6 91.7612 128.654C91.5775 127.707 91.6785 126.727 92.0515 125.838C92.4245 124.949 93.0529 124.191 93.857 123.659C94.6612 123.127 95.6051 122.845 96.5693 122.85C97.8612 122.857 99.0972 123.377 100.007 124.295C100.916 125.212 101.425 126.453 101.421 127.745Z" stroke="#00231F" stroke-width="1.875" stroke-linecap="round" stroke-linejoin="round"></path><path d="M116.155 127.831C116.151 128.795 115.861 129.736 115.322 130.536C114.783 131.335 114.02 131.956 113.127 132.322C112.235 132.687 111.254 132.779 110.31 132.587C109.365 132.395 108.498 131.927 107.819 131.243C107.141 130.558 106.68 129.688 106.496 128.741C106.312 127.795 106.412 126.815 106.785 125.926C107.158 125.037 107.786 124.278 108.59 123.746C109.394 123.214 110.337 122.931 111.301 122.936C112.594 122.943 113.83 123.462 114.74 124.38C115.65 125.297 116.159 126.538 116.155 127.831Z" stroke="#00231F" stroke-width="1.875" stroke-linecap="round" stroke-linejoin="round"></path><path d="M156.572 204.21L172.256 218.202L151.59 241.335L162.723 251.257L183.389 228.122L199.028 242.115L210.637 186.359L156.572 204.21Z" stroke="#00231F" stroke-width="1.875" stroke-linecap="round" stroke-linejoin="round"></path><path d="M149.64 204.598C149.15 209.062 149.179 213.569 149.727 218.027L160.6 215.904C156.128 213.026 152.378 209.157 149.64 204.598Z" stroke="#00231F" stroke-width="1.875" stroke-linecap="round" stroke-linejoin="round"></path><path d="M192 128L192 0" stroke="#00231F" stroke-width="1.875" stroke-linecap="round" stroke-linejoin="round"></path><path d="M192.465 168.468V156.512" stroke="#00231F" stroke-width="1.875" stroke-linecap="round" stroke-linejoin="round"></path><path d="M192.488 192.337V177.998" stroke="#00231F" stroke-width="1.875" stroke-linecap="round" stroke-linejoin="round"></path><path d="M149.727 218.027C151.373 230.633 157.524 242.423 169.873 242.423C178.84 242.423 184.645 238.568 188.154 232.416" stroke="#00231F" stroke-width="1.875" stroke-linecap="round" stroke-linejoin="round"></path><path d="M197.163 173.232C197.163 174.175 196.884 175.096 196.36 175.88C195.836 176.663 195.092 177.274 194.222 177.634C193.351 177.995 192.393 178.09 191.468 177.906C190.544 177.722 189.695 177.268 189.029 176.602C188.362 175.935 187.908 175.086 187.724 174.162C187.54 173.237 187.635 172.279 187.996 171.408C188.356 170.538 188.967 169.794 189.751 169.27C190.534 168.746 191.456 168.467 192.398 168.467C193.024 168.465 193.645 168.587 194.224 168.826C194.803 169.065 195.329 169.416 195.771 169.859C196.215 170.301 196.565 170.827 196.804 171.406C197.043 171.985 197.165 172.606 197.163 173.232Z" stroke="#00231F" stroke-width="1.875" stroke-linecap="round" stroke-linejoin="round"></path><path d="M192.615 149.112C197.034 148.975 197.424 143.61 193.135 143.435C189.929 143.307 187.677 143.348 185.155 143.348C180.909 143.348 180.693 149.03 184.202 149.329C186.29 149.495 188.554 149.226 192.615 149.112Z" stroke="#00231F" stroke-width="1.875" stroke-linecap="round" stroke-linejoin="round"></path><path d="M190.192 130.993C188.633 130.906 187.506 130.86 186.034 130.765C182.005 130.537 181.576 136.195 184.907 136.656C186.599 136.845 188.301 136.917 190.003 136.873" stroke="#00231F" stroke-width="1.875" stroke-linecap="round" stroke-linejoin="round"></path><path d="M193.342 155.211C197.63 154.94 197.902 149.76 193.731 149.709C190.656 149.671 188.446 149.778 186.02 149.839C181.905 149.94 181.821 155.371 185.197 155.601C187.917 155.624 190.636 155.494 193.342 155.211Z" stroke="#00231F" stroke-width="1.875" stroke-linecap="round" stroke-linejoin="round"></path><path d="M190.002 137.016C188.361 136.974 186.936 137.059 185.338 137.016C181.049 136.929 180.702 142.69 184.211 143.037C186.377 143.254 188.63 143.085 192.789 143.037C193.405 143.076 194.017 142.916 194.535 142.579C195.052 142.243 195.447 141.748 195.661 141.169C195.876 140.59 195.897 139.958 195.723 139.366C195.549 138.773 195.188 138.253 194.695 137.882" stroke="#00231F" stroke-width="1.875" stroke-linecap="round" stroke-linejoin="round"></path><path d="M211.707 136.784C209.524 134.229 207.122 131.87 204.53 129.732C201.974 127.696 201.021 128.008 195.693 128.136C189.455 128.277 189.993 128.569 190.018 139.226C190.018 141.825 194.523 142.345 195.736 134.114C194.74 140.438 197.425 144.903 201.664 146.506" stroke="#00231F" stroke-width="1.875" stroke-linecap="round" stroke-linejoin="round"></path><path d="M194.827 156.865C192.836 156.231 191.6 156.637 185.301 155.615" stroke="#00231F" stroke-width="1.875" stroke-linecap="round" stroke-linejoin="round"></path><path d="M321.328 258.318L331.638 274.087" stroke="#00231F" stroke-width="1.875" stroke-linecap="round" stroke-linejoin="round"></path><path d="M390.908 316.575C357.917 295.351 344.784 286.235 318.078 262.129" stroke="#00231F" stroke-width="1.875" stroke-linecap="round" stroke-linejoin="round"></path><path d="M302.006 206.027L284.375 233.059L311.927 255.241L332.982 231.37" stroke="#00231F" stroke-width="1.875" stroke-linecap="round" stroke-linejoin="round"></path><path d="M331.073 209.191C321.599 219.141 321.524 220.751 328.526 227.288C345.929 243.537 348.807 246.488 357.108 253.202C366.203 260.564 379.737 270.619 408.233 291.151" stroke="#00231F" stroke-width="1.875" stroke-linecap="round" stroke-linejoin="round"></path><path d="M316.344 209.364L323.184 209.061C321.875 208.426 320.628 207.672 319.458 206.809" stroke="#00231F" stroke-width="1.875" stroke-linecap="round" stroke-linejoin="round"></path><path d="M335.018 187.788C332.585 188.125 330.227 188.872 328.043 189.997C312.008 197.608 315.61 203.732 319.466 206.808L316.344 209.364C315.011 210.226 313.46 210.693 311.873 210.708C310.286 210.723 308.727 210.287 307.377 209.45C260.409 179.518 214.609 136.173 213.669 135.195C205.55 141.457 198.836 149.354 193.961 158.374C219.784 183.815 247.6 207.153 277.14 228.164" stroke="#00231F" stroke-width="1.875" stroke-linecap="round" stroke-linejoin="round"></path><path d="M173.164 273.784C180.384 271.052 188.178 270.19 195.82 271.276L250.493 278.857" stroke="#00231F" stroke-width="1.875" stroke-linecap="round" stroke-linejoin="round"></path><path d="M339.217 237.263L299.317 284.094C297.503 290.145 294.755 295.875 291.173 301.077C285.886 308.7 277.655 316.365 265.485 317.886C247.929 320.081 194.513 315.804 177.249 314.203L95.0113 341.755C87.1104 333.023 82.8347 321.609 83.055 309.835L173.165 273.784L174.077 270.015C175.268 265.254 178.017 261.027 181.887 258.008C185.757 254.99 190.526 253.353 195.434 253.357H260.503L294.901 201.264" stroke="#00231F" stroke-width="1.875" stroke-linecap="round" stroke-linejoin="round"></path><path d="M161.752 319.392L151.492 360.384C161.664 366.535 173.403 369.606 185.284 369.221L198.41 315.979" stroke="#00231F" stroke-width="1.875" stroke-linecap="round" stroke-linejoin="round"></path><path d="M417.242 318.711C419.859 322.014 422.957 324.905 426.437 327.286C433.325 332.008 431.558 333.718 424.841 330.968C420.155 329.053 419.2 328.207 408.81 323.517C402.118 320.054 395.625 316.221 389.359 312.037" stroke="#00231F" stroke-width="1.875" stroke-linecap="round" stroke-linejoin="round"></path><path d="M419.234 321.09C419.234 321.09 424.392 322.898 430.801 324.816C437.996 326.968 440.028 324.642 432.187 320.744C428.099 318.965 424.369 316.455 421.184 313.336" stroke="#00231F" stroke-width="1.875" stroke-linecap="round" stroke-linejoin="round"></path><path d="M422.875 308.051C422.875 308.051 438.295 313.251 439.291 313.552C446.735 315.789 446.092 318.669 438.944 318.058C432.403 317.499 424.389 316.065 424.389 316.065" stroke="#00231F" stroke-width="1.875" stroke-linecap="round" stroke-linejoin="round"></path><path d="M409.614 293.406C409.459 292.506 408.964 291.699 408.232 291.149C404.765 288.757 398.572 294.4 395.692 298.005C392.307 302.253 386.433 313.607 390.904 316.576C391.698 316.956 392.578 317.125 393.458 317.066C394.336 317.007 395.184 316.722 395.92 316.238" stroke="#00231F" stroke-width="1.875" stroke-linecap="round" stroke-linejoin="round"></path><path d="M403.375 291.371C406.567 293.314 411.232 294.531 413.635 291.891C416.841 288.382 421.004 282.791 422.605 284.353C425.078 286.775 418.316 294.447 418.316 298.565C418.316 299.951 422 301.189 423.56 301.467C426.068 301.923 434.606 303.496 435.473 303.633C443.225 304.844 442.274 307.944 435.516 307.878C432.181 307.755 428.843 308.09 425.596 308.875" stroke="#00231F" stroke-width="1.875" stroke-linecap="round" stroke-linejoin="round"></path><path d="M423.654 304.5C422.833 310.506 420.063 316.076 415.77 320.355" stroke="#00231F" stroke-width="1.875" stroke-linecap="round" stroke-linejoin="round"></path><path d="M418.585 305.105C414.294 310.564 409.312 312.946 403.594 310.477" stroke="#00231F" stroke-width="1.875" stroke-linecap="round" stroke-linejoin="round"></path><path d="M83.2699 316.109C73.9219 319.757 58.9651 325.25 50.561 327.632C41.213 330.275 33.103 333.004 32.7565 334.701C31.6302 340.765 56.0125 338.12 66.4184 342.452C68.8685 343.517 71.4998 344.105 74.1704 344.183C79.1864 344.183 83.6142 339.764 91.5417 337.208C87.0652 330.977 84.2213 323.722 83.2699 316.109Z" stroke="#00231F" stroke-width="1.875" stroke-linecap="round" stroke-linejoin="round"></path><path d="M156.789 363.244C153.843 372.861 149.294 386.767 146.175 394.391C142.493 403.447 139.634 411.505 140.76 412.804C144.832 417.44 157.785 396.603 167.619 391.101C169.972 389.838 172.061 388.135 173.775 386.085C176.764 382.316 176.201 376.425 178.67 369.06C171.079 368.497 163.658 366.525 156.789 363.244Z" stroke="#00231F" stroke-width="1.875" stroke-linecap="round" stroke-linejoin="round"></path><path d="M336.612 201.434C340.399 197.371 342.971 187.109 335.016 187.788C344.07 186.835 361.132 196.32 352.778 214.259C344.41 232.234 341.558 214.172 331.074 209.19C331.343 208.921 331.672 208.719 332.032 208.601C332.394 208.482 332.777 208.449 333.154 208.506C340.951 210.846 343.206 203.814 338.309 203.438C336.4 203.281 335.313 202.827 336.612 201.434Z" stroke="#00231F" stroke-width="1.875" stroke-linecap="round" stroke-linejoin="round"></path><path d="M42.549 278.418C42.7488 278.77 42.8534 279.166 42.8525 279.57C42.8518 279.973 42.7454 280.37 42.544 280.721C42.3427 281.072 42.0534 281.362 41.7048 281.567C41.3561 281.77 40.9603 281.88 40.5563 281.884H13.698C13.2931 281.882 12.8957 281.775 12.5455 281.572C12.1954 281.369 11.9048 281.077 11.7028 280.726C11.5008 280.375 11.3945 279.978 11.3945 279.572C11.3946 279.166 11.5009 278.77 11.703 278.418L25.1344 255.112C25.3391 254.766 25.6305 254.478 25.9798 254.28C26.3294 254.079 26.7247 253.975 27.1271 253.975C27.5295 253.975 27.9249 254.079 28.2744 254.28C28.6239 254.478 28.9153 254.766 29.1198 255.112L42.549 278.418Z" stroke="#00231F" stroke-width="1.875" stroke-linecap="round" stroke-linejoin="round"></path><path d="M27.125 263.039V271.14" stroke="#00231F" stroke-width="1.875" stroke-linecap="round" stroke-linejoin="round"></path><path d="M254.414 358.002V380.442" stroke="#00231F" stroke-width="1.875" stroke-linecap="round" stroke-linejoin="round"></path><path d="M265.657 369.221H243.172" stroke="#00231F" stroke-width="1.875" stroke-linecap="round" stroke-linejoin="round"></path><path d="M346.333 143.556C345.54 142.767 344.463 142.324 343.344 142.324C342.224 142.324 341.148 142.767 340.355 143.556L339.229 144.639L338.189 143.556C337.395 142.764 336.322 142.318 335.2 142.318C334.078 142.318 333.004 142.764 332.211 143.556C331.417 144.349 330.973 145.424 330.973 146.545C330.973 147.667 331.417 148.742 332.211 149.535L339.279 156.603L346.347 149.535C347.136 148.739 347.578 147.663 347.573 146.543C347.571 145.422 347.126 144.348 346.333 143.556Z" stroke="#00231F" stroke-width="1.875" stroke-linecap="round" stroke-linejoin="round"></path><path d="M147.906 63.4123C148.245 63.4141 148.58 63.483 148.892 63.6147C149.205 63.7465 149.488 63.9387 149.725 64.1802C149.963 64.4219 150.15 64.708 150.277 65.0222C150.403 65.3366 150.466 65.6727 150.462 66.0115V82.9929C150.46 83.3317 150.392 83.6669 150.26 83.979C150.128 84.2911 149.936 84.5741 149.694 84.8116C149.453 85.0492 149.167 85.2366 148.852 85.3632C148.538 85.4897 148.202 85.5526 147.863 85.5488H122.521C122.182 85.5469 121.847 85.4783 121.535 85.3465C121.223 85.2148 120.94 85.0225 120.702 84.7809C120.465 84.5394 120.277 84.2533 120.151 83.9389C120.024 83.6247 119.961 83.2884 119.965 82.9496V65.9682C119.967 65.6293 120.036 65.2944 120.167 64.9823C120.299 64.6702 120.491 64.3872 120.733 64.1496C120.975 63.9121 121.261 63.7246 121.575 63.5981C121.889 63.4716 122.225 63.4084 122.564 63.4123H147.906Z" stroke="#00231F" stroke-width="1.875" stroke-linecap="round" stroke-linejoin="round"></path><path d="M120.832 64.0176L135.214 74.4577L149.596 64.0609" stroke="#00231F" stroke-width="1.875" stroke-linecap="round" stroke-linejoin="round"></path><path d="M307.418 209.451C309.714 219.457 315.852 224.497 325.831 224.57" stroke="#00231F" stroke-width="1.875" stroke-linecap="round" stroke-linejoin="round"></path><path d="M275.624 288.729C274.144 294.853 274.944 301.305 277.876 306.882" stroke="#00231F" stroke-width="1.875" stroke-linecap="round" stroke-linejoin="round"></path><path d="M283.159 240.121L271.203 256.758L277.008 269.494L291.13 272.787L305.253 257.668L283.159 240.121Z" stroke="#00231F" stroke-width="1.875" stroke-linecap="round" stroke-linejoin="round"></path><path d="M171.52 368.094L180.054 335.082" stroke="#00231F" stroke-width="1.875" stroke-linecap="round" stroke-linejoin="round"></path><path d="M88.082 331.53L123.997 318.145" stroke="#00231F" stroke-width="1.875" stroke-linecap="round" stroke-linejoin="round"></path><path d="M160.254 325.379L198.421 315.979" stroke="#00231F" stroke-width="1.875" stroke-linecap="round" stroke-linejoin="round"></path></g><defs><clipPath id="clip0_12323_92046"><rect width="456" height="456" fill="white"></rect></clipPath></defs></svg>