<svg xmlns="http://www.w3.org/2000/svg" width="41" height="40" viewBox="0 0 41 40" fill="none"><g clip-path="url(#clip0_12359_32427)"><circle cx="20.9843" cy="19.9999" r="19.9999" fill="#71717A"></circle><circle cx="20.9835" cy="19.9952" r="16.7999" fill="white"></circle><path d="M15.6925 0.511669C9.30418 2.2571 4.24243 7.17922 2.07809 13.6722C0.78647 17.4773 0.78647 22.3296 2.07809 26.0997C2.56681 27.5659 3.29989 29.3462 3.68389 30.0095C5.91804 33.7098 9.61836 36.8516 13.8772 38.7017C15.8321 39.5396 16.3906 39.6094 21.0684 39.6094C25.7462 39.6094 26.3047 39.5396 28.2596 38.7017C32.5184 36.8516 36.2188 33.7098 38.4529 30.0095C41.1409 25.4714 41.7692 18.5944 39.954 13.3581C37.7198 6.96977 32.693 2.18728 26.3047 0.511669C23.9309 -0.116688 18.0314 -0.116688 15.6925 0.511669ZM23.128 12.4155L23.9309 13.009L22.8138 13.8817C20.3004 15.8366 19.3928 20.0605 20.5797 24.0401C21.2429 26.3092 21.0335 26.5884 18.555 26.7979C17.019 26.9026 16.4954 26.7979 15.483 26.0997C14.1216 25.1921 12.7252 22.2598 12.6903 20.3398C12.6903 19.7463 12.5507 19.1529 12.3761 19.0133C11.9223 18.7689 11.5034 22.2947 11.7129 24.459C11.9223 26.4837 11.3987 26.9724 9.26928 26.7979C8.25692 26.7281 7.87293 26.4837 7.48893 25.6808C7.07003 24.8081 7.10494 24.075 7.66348 20.2002C8.1522 16.5697 8.18711 15.5573 7.83802 14.7893C7.62857 14.2657 7.48893 13.8119 7.52384 13.777C8.25692 13.1486 10.1769 12.5552 11.3987 12.5552C14.1216 12.5552 15.0292 13.7071 15.8321 18.4896C16.0765 19.7463 16.3906 21.0031 16.5652 21.2823C16.9492 21.9805 16.9492 21.7361 16.5303 19.502C15.9019 16.2904 17.2285 13.2184 19.6721 12.241C20.9986 11.7174 22.2204 11.7872 23.128 12.4155ZM33.3213 13.2184C34.1592 14.2657 34.1592 15.4177 33.3213 16.43C32.4137 17.5471 30.1796 17.582 28.9927 16.4649C28.2247 15.7318 28.1549 15.7318 27.6312 16.2904C26.6189 17.4773 26.2349 18.5594 26.2349 20.4445C26.2 23.3768 27.8756 24.6336 29.7956 23.0976C30.5636 22.5041 30.5636 22.4343 30.005 21.3871L29.4465 20.3049L30.9476 19.5718C33.9497 18.1056 34.9271 18.8038 34.4733 21.9107C34.3337 22.9928 34.1592 24.9826 34.1592 26.3441L34.1242 28.7877L32.8326 29.1019C31.4014 29.4859 30.3541 28.8575 30.005 27.4612C29.8305 26.763 29.5861 26.6932 27.8058 26.6932C25.1876 26.6932 23.5818 25.7855 22.5695 23.7259C21.0335 20.7238 21.7666 17.1282 24.4196 14.5799C26.2349 12.8693 28.0501 12.2061 30.6334 12.3108C32.2741 12.4155 32.8326 12.5901 33.3213 13.2184Z" fill="#71717A"></path></g><defs><clipPath id="clip0_12359_32427"><rect width="40" height="39.9998" fill="white" transform="translate(0.984375)"></rect></clipPath></defs></svg>