<svg xmlns="http://www.w3.org/2000/svg" width="65" height="43" viewBox="0 0 65 43" fill="none"><g clip-path="url(#clip0_12359_32380)"><path d="M42.5497 12.6445C41.604 14.6689 40.4002 18.3618 42.8074 22.3202C45.2146 26.2786 51.4909 29.7968 52.5226 34.8102C53.5543 39.8237 50.5439 42.3749 50.5439 42.3749C51.7472 36.3958 50.7316 33.3602 44.2675 28.7413C38.8526 24.8705 37.4758 17.1293 42.5497 12.6445Z" fill="white" stroke="white" stroke-width="2.75424" stroke-linecap="round" stroke-linejoin="round"></path><path d="M55.0145 23.18L64.4251 22.343L55.6431 18.7862L63.7702 13.89L54.3136 14.6037L59.5946 6.56355L51.4439 11.4221L52.7246 1.81423L47.3635 9.9923L44.5201 0.585938L43.4023 12.1452L43.4585 12.1885C44.4116 11.8457 45.4216 11.6991 46.4304 11.7573C47.4391 11.8154 48.4266 12.0772 49.3361 12.5275C50.2455 12.9778 51.0589 13.6077 51.7294 14.3809C52.3998 15.1541 52.9141 16.0555 53.2427 17.0329C53.5712 18.0104 53.7075 19.0447 53.6437 20.0763C53.5798 21.1078 53.3171 22.1163 52.8707 23.0436C52.4243 23.9708 51.803 24.7986 51.0425 25.4791C50.2821 26.1597 49.3976 26.6796 48.4399 27.009L47.7193 27.1888C48.2871 27.7396 48.8559 28.2975 49.4008 28.8681C49.7521 29.2102 50.0827 29.5741 50.3906 29.9575C50.8469 30.4834 51.2707 31.038 51.6593 31.618L55.3762 36.0462L52.5691 26.7985L61.4298 30.2513L55.0145 23.18Z" fill="white" stroke="white" stroke-width="2.75424" stroke-linecap="round" stroke-linejoin="round"></path><path d="M42.8011 13.4303C41.9608 15.5451 41.2751 18.8302 43.3993 22.3211C44.2511 23.7217 45.5879 25.0672 47.0048 26.4434C47.2493 26.4457 47.4937 26.4299 47.736 26.3963C48.6543 26.1344 49.5099 25.6815 50.2493 25.0659C50.9887 24.4503 51.596 23.6852 52.0332 22.8186C52.4705 21.952 52.7282 21.0023 52.7904 20.0291C52.8526 19.0559 52.7179 18.0801 52.3946 17.1626C52.0714 16.2451 51.5666 15.4057 50.9118 14.6968C50.257 13.988 49.4664 13.425 48.5892 13.043C47.7121 12.661 46.7674 12.4683 45.8141 12.4768C44.8608 12.4854 43.9196 12.6951 43.0491 13.0927C42.9626 13.2057 42.8799 13.3182 42.8011 13.4303Z" fill="#71717A" stroke="white" stroke-width="2.75424" stroke-linecap="round" stroke-linejoin="round"></path><path d="M42.5497 12.6445C41.604 14.6689 40.4002 18.3618 42.8074 22.3202C45.2146 26.2786 51.4909 29.7968 52.5226 34.8102C53.5543 39.8237 50.5439 42.3749 50.5439 42.3749C51.7472 36.3958 50.7316 33.3602 44.2675 28.7413C38.8526 24.8705 37.4758 17.1293 42.5497 12.6445Z" fill="#71717A"></path><path d="M55.0145 23.18L64.4251 22.343L55.6431 18.7862L63.7702 13.89L54.3136 14.6037L59.5946 6.56355L51.4439 11.4221L52.7246 1.81423L47.3635 9.9923L44.5201 0.585938L43.4023 12.1452L43.4585 12.1885C44.4116 11.8457 45.4216 11.6991 46.4304 11.7573C47.4391 11.8154 48.4266 12.0772 49.3361 12.5275C50.2455 12.9778 51.0589 13.6077 51.7294 14.3809C52.3998 15.1541 52.9141 16.0555 53.2427 17.0329C53.5712 18.0104 53.7075 19.0447 53.6437 20.0763C53.5798 21.1078 53.3171 22.1163 52.8707 23.0436C52.4243 23.9708 51.803 24.7986 51.0425 25.4791C50.2821 26.1597 49.3976 26.6796 48.4399 27.009L47.7193 27.1888C48.2871 27.7396 48.8559 28.2975 49.4008 28.8681C49.7521 29.2102 50.0827 29.5741 50.3906 29.9575C50.8469 30.4834 51.2707 31.038 51.6593 31.618L55.3762 36.0462L52.5691 26.7985L61.4298 30.2513L55.0145 23.18Z" fill="#71717A"></path><path d="M42.8011 13.4303C41.9608 15.5451 41.2751 18.8302 43.3993 22.3211C44.2511 23.7217 45.5879 25.0672 47.0048 26.4434C47.2493 26.4457 47.4937 26.4299 47.736 26.3963C48.6543 26.1344 49.5099 25.6815 50.2493 25.0659C50.9887 24.4503 51.596 23.6852 52.0332 22.8186C52.4705 21.952 52.7282 21.0023 52.7904 20.0291C52.8526 19.0559 52.7179 18.0801 52.3946 17.1626C52.0714 16.2451 51.5666 15.4057 50.9118 14.6968C50.257 13.988 49.4664 13.425 48.5892 13.043C47.7121 12.661 46.7674 12.4683 45.8141 12.4768C44.8608 12.4854 43.9196 12.6951 43.0491 13.0927C42.9626 13.2057 42.8799 13.3182 42.8011 13.4303Z" fill="#71717A"></path><path d="M10.6711 24.0303C8.67624 24.0303 7.35231 26.0076 7.35231 29.1803C7.35231 32.4758 8.8939 33.7272 10.6711 33.7272V34.5934C7.46137 34.5934 5.08594 33.2479 5.08594 29.1186C5.08594 25.4841 7.35277 23.1641 10.6711 23.1641V24.0303Z" fill="#71717A"></path><path d="M16.8371 30.6481C16.8371 32.5661 15.4952 34.5919 13.4281 34.5919C11.2883 34.5919 10.1641 32.535 10.1641 30.6636C10.1641 28.9005 11.2883 26.8281 13.4281 26.8281C15.4952 26.8281 16.8371 28.5451 16.8371 30.6481ZM13.446 33.865C14.516 33.865 14.9149 32.1024 14.8965 30.6636C14.8965 28.9005 14.516 27.5564 13.446 27.5564C12.3577 27.5564 12.1221 28.933 12.1221 30.6806C12.1221 32.4423 12.3761 33.865 13.446 33.865Z" fill="#71717A"></path><path d="M19.1841 31.564C19.1841 32.9095 19.1478 33.3732 19.8371 33.3732C21.1256 33.3732 21.4146 31.9505 21.4146 30.6205V27.1094H23.3731V34.3633H21.3944V33.4509C21.0994 33.7972 20.7378 34.0775 20.3322 34.2744C19.9265 34.4713 19.4856 34.5806 19.0369 34.5954C17.4957 34.5954 17.2422 33.6213 17.2422 32.1671V27.1094H19.1823L19.1841 31.564Z" fill="#71717A"></path><path d="M25.8078 34.3616H23.8672V27.0927H25.8078V27.9434C26.0956 27.5623 26.4719 27.2608 26.9026 27.0663C27.3333 26.8719 27.8047 26.7906 28.2738 26.83C29.5251 26.83 30.0874 27.4952 30.0874 28.392V34.3621H28.1275V29.1029C28.1275 28.2983 28.0184 28.0823 27.2568 28.0823C26.8834 28.1371 26.5383 28.3172 26.2758 28.5944C26.0132 28.8716 25.8481 29.2301 25.8064 29.6137L25.8078 34.3616Z" fill="#71717A"></path><path d="M33.2951 24.6641V27.1075H34.9978L34.6352 27.8499H33.2933V34.3614H31.3546V27.848H30.3008L30.6634 27.1056H31.3537V24.6641H33.2951Z" fill="#71717A"></path><path d="M37.2096 27.1064V31.5318C37.2096 32.9395 37.4089 33.5562 38.2795 33.5562C39.4401 33.5562 39.5492 32.4734 39.5492 31.2051V27.1064H41.3986V33.9578C41.3986 36.2468 40.256 37.9327 38.3523 37.9327C38.0803 37.9327 37.6086 37.871 37.6086 37.871V37.2058C38.4066 37.2058 38.6242 37.1436 39.0775 36.5561C39.6578 35.767 39.5492 33.834 39.5492 33.834C38.9934 34.271 38.3258 34.5341 37.627 34.5915C36.0132 34.5915 35.2695 33.818 35.2695 31.5135V27.1055L37.2096 27.1064Z" fill="#71717A"></path><path d="M8.98842 15.1694V22.4233H7.04831V15.1694H8.98842ZM8.98842 12.8493C8.99233 12.9883 8.96811 13.1266 8.91727 13.2555C8.86643 13.3844 8.79008 13.5011 8.69301 13.5984C8.59595 13.6957 8.48026 13.7714 8.35323 13.8207C8.2262 13.87 8.09057 13.8919 7.95486 13.8851C7.81637 13.8879 7.67874 13.8622 7.5501 13.8097C7.42146 13.7571 7.30444 13.6787 7.20594 13.5791C7.10745 13.4794 7.02949 13.3606 6.97668 13.2296C6.92387 13.0986 6.89728 12.958 6.89848 12.8163C6.89968 12.6746 6.92865 12.5346 6.98367 12.4046C7.03869 12.2745 7.11865 12.1571 7.21882 12.0592C7.31899 11.9613 7.43732 11.885 7.56683 11.8347C7.69634 11.7844 7.83439 11.7612 7.97281 11.7665C8.11147 11.7605 8.24979 11.7848 8.37857 11.8378C8.50735 11.8907 8.62364 11.9711 8.7197 12.0735C8.81577 12.176 8.88942 12.2982 8.93575 12.4321C8.98208 12.5659 9.00004 12.7078 8.98842 12.8493Z" fill="#71717A"></path><path d="M11.5417 22.4246H9.60156V15.1552H11.5417V16.0059C11.8296 15.6248 12.206 15.3233 12.6368 15.1288C13.0675 14.9344 13.539 14.8531 14.0082 14.8925C15.2594 14.8925 15.8218 15.5572 15.8218 16.4546V22.4246H13.8628V17.1659C13.8628 16.3618 13.7537 16.1452 12.9926 16.1452C12.6193 16.1999 12.2742 16.3798 12.0116 16.6567C11.749 16.9336 11.5837 17.2919 11.5417 17.6753V22.4246Z" fill="#71717A"></path><path d="M18.2432 19.0354C18.2432 21.0462 18.8783 21.8658 20.4557 21.8658C20.9315 21.8551 21.4051 21.7982 21.8703 21.6959V22.3762C21.2462 22.5637 20.5987 22.6574 19.9482 22.6544C17.772 22.6544 16.2852 21.5716 16.2852 18.85C16.2852 17.0252 17.1011 14.8906 19.2229 14.8906C21.5625 14.8906 22.07 16.8548 22.07 19.0336L18.2432 19.0354ZM18.2432 18.0939H20.1299C20.1299 16.7173 20.0936 15.4956 19.1507 15.4956C18.4425 15.4937 18.2432 16.762 18.2432 18.092V18.0939Z" fill="#71717A"></path><path d="M24.5573 22.4266H22.6172V11.4609H24.5573V22.4266Z" fill="#71717A"></path><path d="M27.2448 22.4266H25.3047V11.4609H27.2448V22.4266Z" fill="#71717A"></path><path d="M31.3126 22.6544C28.7011 22.6544 27.6133 21.4167 27.6133 19.8702C27.6133 18.1226 29.5175 17.0247 31.748 16.8854C31.7296 16.0813 31.5303 15.6637 30.442 15.6637C29.9816 15.6894 29.5254 15.7671 29.0817 15.8953V15.1689C29.726 14.9853 30.3916 14.8918 31.0605 14.8906C33.2182 14.8906 33.7626 15.4782 33.7626 17.3962V22.4072C32.954 22.5582 32.1345 22.6408 31.3126 22.6544ZM31.8188 21.8654V17.6438C31.5281 17.6336 31.2383 17.6832 30.9666 17.7897C30.6949 17.8961 30.4469 18.0573 30.2372 18.2637C30.0275 18.47 29.8605 18.7173 29.7459 18.9909C29.6314 19.2645 29.5717 19.5589 29.5704 19.8565C29.5723 21.0768 30.6596 21.8635 31.8207 21.8635L31.8188 21.8654Z" fill="#71717A"></path><path d="M38.2323 15.6646C37.525 15.5558 36.5458 15.6335 36.5458 16.4993C36.6186 17.024 36.8249 17.52 37.144 17.9375L37.5066 18.51C38.0326 19.3141 38.5406 19.9944 38.5406 20.6907C38.5406 21.959 37.5066 22.6548 35.9471 22.6548C35.3853 22.6463 34.8284 22.5471 34.2969 22.3611V21.6497C34.6826 21.7612 35.0768 21.8388 35.4754 21.8818C35.6144 21.8881 35.7533 21.8663 35.8841 21.8177C36.0149 21.769 36.135 21.6945 36.2376 21.5983C36.3401 21.5021 36.4232 21.3861 36.4819 21.257C36.5406 21.128 36.5739 20.9883 36.5798 20.8461C36.5097 20.3263 36.2958 19.8378 35.9632 19.4384L35.6912 19.0364C35.1629 18.3614 34.8356 17.5453 34.7483 16.6852C34.7483 15.6495 35.619 14.8915 37.1237 14.8915C37.5 14.8822 37.8746 14.9451 38.2282 15.077L38.2323 15.6646Z" fill="#71717A"></path><path d="M5.66938 11.7468C4.43887 10.6847 2.41087 11.4563 1.97048 11.6747V11.4233H0L0.0156458 22.4549H1.97232V19.7083C3.27017 19.5706 4.47147 18.9436 5.3422 17.9494C7.46177 15.3996 6.47423 12.5735 5.66938 11.7468ZM4.46188 14.5376C4.35189 18.4951 2.56457 18.81 1.97002 18.9159V12.4577C2.43894 11.961 3.37494 12.3376 3.58386 12.436C4.53504 12.9873 4.49823 14.297 4.46188 14.5376Z" fill="#71717A"></path></g><defs><clipPath id="clip0_12359_32380"><rect width="65" height="42.9661" fill="white"></rect></clipPath></defs></svg>